<?xml version="1.0" standalone="no"?>
<!DOCTYPE svg PUBLIC "-//W3C//DTD SVG 20010904//EN"
 "http://www.w3.org/TR/2001/REC-SVG-20010904/DTD/svg10.dtd">
<svg version="1.0" xmlns="http://www.w3.org/2000/svg"
 width="2088.000000pt" height="441.000000pt" viewBox="0 0 2088.000000 441.000000"
 preserveAspectRatio="xMidYMid meet">

<g transform="translate(0.000000,441.000000) scale(0.100000,-0.100000)"
fill="#000000" stroke="none">
<path d="M5 4377 c4 -17 11 -617 15 -1332 8 -1362 8 -1379 55 -1585 81 -361
246 -583 615 -826 157 -104 325 -196 605 -331 121 -59 307 -151 413 -205 l192
-98 193 98 c105 54 291 146 412 205 839 406 1110 663 1220 1157 47 209 48 229
56 1590 3 712 10 1310 14 1327 l7 33 -188 -8 c-246 -9 -3182 -9 -3428 0 l-188
8 7 -33z m2295 -757 l0 -730 720 0 720 0 0 -400 0 -400 -720 0 -720 0 -1 -922
-1 -923 -199 -99 -199 -100 -199 100 -199 99 -1 923 -1 922 -720 0 -720 0 0
400 0 400 720 0 720 0 0 730 0 730 400 0 400 0 0 -730z m-1684 633 c7 -10 14
-33 14 -52 l0 -35 28 27 c15 15 33 27 39 27 13 0 23 -23 23 -51 0 -10 7 -19
15 -19 8 0 22 -14 31 -32 15 -29 15 -34 0 -65 -19 -40 -36 -35 -36 10 -1 55
-18 8 -26 -69 -3 -38 -15 -89 -25 -113 -11 -24 -19 -44 -19 -46 0 -1 13 0 29
3 25 3 32 -1 45 -26 9 -17 16 -36 16 -42 0 -16 -31 -12 -52 7 -17 15 -18 14
-18 -25 0 -51 -12 -60 -38 -27 -11 14 -22 25 -25 25 -3 0 -8 -15 -11 -34 -8
-42 -33 -67 -47 -45 -5 8 -12 25 -15 39 -12 53 -14 55 -33 24 -18 -29 -18 -29
13 -65 17 -19 36 -44 43 -55 12 -18 14 -17 40 14 19 21 37 32 54 32 15 0 50
16 79 35 28 19 68 39 88 45 60 16 228 12 321 -9 88 -20 123 -17 135 15 17 43
-14 67 -150 115 -179 63 -254 115 -275 191 -14 53 -5 100 28 138 57 69 138 78
281 32 48 -16 93 -27 100 -24 7 2 12 18 12 35 l1 32 19 -24 c37 -43 20 -81
-36 -81 -28 0 -91 17 -169 45 -11 4 3 -7 30 -24 28 -17 66 -36 85 -42 70 -21
66 -19 50 -29 -30 -19 -83 -10 -147 26 -88 49 -118 56 -158 39 -42 -17 -59
-48 -52 -95 5 -37 42 -100 59 -100 5 0 6 11 2 25 -3 14 -3 25 1 25 22 0 84
-47 107 -81 29 -41 58 -56 38 -20 -15 29 -12 41 10 41 23 0 87 -53 95 -81 7
-22 25 -26 25 -4 0 35 53 -1 80 -55 27 -52 25 -93 -4 -127 -21 -24 -30 -27
-77 -26 -30 1 -74 8 -98 17 -24 9 -60 16 -80 15 l-36 -1 32 -9 c43 -13 77 -56
103 -133 27 -81 66 -119 119 -114 30 2 36 -1 42 -22 12 -44 10 -50 -18 -50
l-26 0 20 -22 c40 -44 42 -115 2 -103 -24 8 -24 5 1 -42 14 -28 18 -49 13 -80
-6 -49 -22 -48 -46 2 -25 52 -42 46 -38 -11 2 -26 -14 -40 -58 -49 -29 -6 -33
-5 -28 10 4 9 7 24 7 34 0 9 23 52 50 96 28 44 50 91 50 105 0 34 -34 65 -88
81 -61 18 -112 66 -188 179 -36 55 -70 100 -75 100 -12 0 -11 -7 3 -29 20 -32
4 -50 -39 -44 -26 3 -54 -2 -86 -16 -61 -26 -71 -26 -64 0 9 35 -15 16 -42
-33 -25 -45 -25 -48 -9 -75 12 -20 14 -33 7 -46 -11 -18 -39 -24 -39 -7 0 6
-4 10 -10 10 -5 0 -10 -15 -10 -33 0 -37 -24 -77 -46 -77 -8 0 -14 9 -14 20 0
11 -4 20 -10 20 -5 0 -10 -17 -10 -38 0 -38 -22 -82 -42 -82 -6 0 -17 8 -24
18 -12 15 -13 11 -14 -29 0 -32 -9 -65 -29 -102 -28 -54 -30 -55 -46 -37 -13
14 -16 29 -12 54 l5 34 -33 -21 c-19 -12 -34 -28 -35 -34 0 -16 -36 -40 -74
-49 -28 -7 -28 -6 -21 27 9 44 26 62 89 98 105 59 196 160 221 245 11 37 10
47 -13 106 -20 54 -25 84 -26 170 l-1 105 27 3 28 3 -20 40 c-11 21 -27 73
-35 116 -17 89 -35 118 -35 58 l-1 -40 -19 24 c-44 52 -36 106 16 106 25 0 29
4 32 30 6 57 10 60 42 30 20 -19 30 -24 30 -14 0 21 38 79 51 79 7 0 18 -8 25
-17z m2328 -5 c9 -12 16 -33 16 -46 l0 -23 33 25 c38 29 47 26 47 -15 0 -21 7
-32 30 -44 24 -13 30 -22 30 -49 0 -19 -9 -44 -20 -57 l-19 -24 -1 32 c0 17
-4 35 -10 38 -5 3 -10 2 -10 -2 0 -44 -24 -182 -35 -204 -21 -39 -19 -46 13
-41 23 3 30 -2 45 -33 9 -19 17 -38 17 -40 0 -12 -35 -4 -52 12 -17 15 -18 14
-18 -25 0 -52 -13 -60 -45 -26 -17 19 -26 23 -28 13 -16 -58 -24 -74 -38 -77
-15 -3 -39 47 -39 81 0 27 -15 20 -27 -12 -9 -26 -8 -32 12 -51 13 -12 29 -35
35 -51 16 -37 31 -37 58 1 17 22 31 30 53 30 18 0 44 11 67 30 20 16 57 36 81
45 64 22 229 20 337 -5 80 -19 89 -19 111 -5 18 12 23 24 21 43 -4 32 -61 64
-201 113 -102 36 -172 80 -204 128 -32 47 -32 125 0 171 51 76 141 89 294 41
98 -31 113 -28 113 19 1 24 1 25 16 5 8 -11 14 -33 12 -50 -3 -27 -7 -30 -42
-33 -24 -2 -67 7 -112 22 -40 14 -76 26 -81 26 -16 0 82 -53 132 -70 28 -10
50 -22 50 -27 0 -4 -19 -9 -43 -11 -34 -3 -54 4 -100 31 -75 45 -122 60 -153
48 -68 -25 -84 -101 -36 -165 30 -39 55 -50 37 -15 -30 55 41 22 108 -50 l43
-46 -6 33 c-6 27 -4 32 12 32 27 0 58 -25 83 -65 12 -19 26 -33 31 -29 5 3 7
10 4 15 -15 24 25 5 54 -25 27 -27 35 -45 39 -84 6 -62 -9 -88 -56 -103 -32
-9 -50 -8 -113 10 -42 12 -88 21 -105 20 -26 -1 -27 -2 -6 -7 39 -12 89 -69
102 -120 7 -26 19 -59 27 -74 17 -35 67 -62 103 -54 30 6 40 -6 40 -50 0 -19
-5 -24 -27 -24 l-27 0 28 -29 c21 -22 27 -36 24 -62 -3 -29 -6 -34 -27 -31
l-24 4 21 -37 c22 -36 32 -135 14 -135 -13 0 -39 32 -46 58 -12 38 -36 27 -36
-18 0 -37 -2 -40 -37 -49 -20 -6 -39 -9 -41 -6 -12 11 13 80 45 127 82 122 78
155 -25 197 -76 31 -118 71 -184 171 -27 41 -57 83 -65 93 -24 26 -36 21 -17
-8 25 -38 12 -57 -33 -49 -27 4 -55 -1 -93 -15 -68 -26 -73 -26 -65 -1 11 34
-9 22 -32 -20 -26 -44 -29 -71 -11 -100 10 -16 10 -23 -4 -36 -13 -14 -20 -15
-31 -5 -12 9 -16 5 -22 -26 -13 -69 -46 -98 -60 -53 -9 30 -23 24 -17 -7 6
-34 -25 -93 -50 -93 -10 0 -18 7 -18 16 0 8 -4 13 -9 10 -5 -4 -9 -26 -9 -50
1 -28 -6 -56 -20 -78 -12 -20 -22 -43 -22 -51 0 -25 -27 -10 -40 23 -9 21 -9
34 0 49 7 14 7 21 0 21 -5 0 -10 -4 -10 -9 0 -5 -9 -13 -20 -16 -11 -4 -27
-19 -35 -35 -8 -15 -25 -30 -39 -34 -13 -3 -31 -9 -40 -12 -11 -4 -16 0 -16
14 0 42 24 72 88 109 83 48 172 137 206 205 31 63 32 77 5 148 -26 67 -41 180
-33 238 6 38 9 42 34 42 l29 0 -24 43 c-13 23 -28 74 -35 112 -13 85 -30 118
-30 63 0 -21 -4 -38 -10 -38 -17 0 -41 60 -38 93 3 29 6 32 36 31 30 -2 32 0
32 30 0 53 13 61 48 31 l32 -27 0 23 c0 22 35 69 51 69 4 0 15 -10 23 -22z
m-2696 -122 c13 -25 16 -56 14 -160 -2 -160 16 -252 60 -302 35 -39 62 -43 95
-12 13 12 25 20 27 17 2 -2 7 -29 10 -60 7 -55 6 -57 -19 -63 -38 -10 -73 -35
-80 -57 -9 -28 -23 -23 -45 14 -26 42 -25 47 5 47 36 0 31 16 -12 37 -37 18
-83 73 -83 99 0 8 9 14 20 14 27 0 25 8 -5 32 -28 21 -55 68 -55 93 0 9 9 15
23 15 l22 1 -20 17 c-27 22 -87 127 -78 135 19 20 54 5 73 -30 l21 -38 -5 43
c-2 24 -12 52 -22 63 -14 15 -16 29 -10 75 4 31 9 61 12 66 8 12 32 -9 52 -46z
m2328 -13 c10 -22 14 -77 14 -172 0 -154 19 -242 61 -287 30 -32 72 -31 97 1
l20 26 5 -28 c20 -104 21 -99 -23 -112 -23 -7 -49 -24 -62 -41 -12 -17 -24
-30 -28 -30 -8 0 -40 55 -40 69 0 6 9 11 19 11 36 0 31 17 -9 35 -63 28 -107
115 -59 115 19 0 17 5 -20 45 -47 51 -56 95 -18 95 21 1 21 1 -6 21 -28 21
-80 116 -71 131 12 20 46 6 65 -27 12 -19 23 -35 25 -35 12 0 -11 88 -27 103
-22 21 -23 29 -7 96 11 50 12 51 31 33 11 -9 26 -31 33 -49z m-2248 -167 c3
-36 -10 -66 -29 -66 -10 0 -12 70 -3 95 11 27 29 11 32 -29z m2328 18 c8 -31
-5 -75 -23 -82 -10 -3 -13 12 -13 52 0 43 3 56 15 56 8 0 18 -12 21 -26z
m-1685 -446 c18 -36 20 -47 10 -74 -16 -43 -5 -80 30 -105 24 -17 27 -24 19
-40 -8 -15 -17 -18 -37 -13 -23 6 -25 5 -19 -12 17 -41 16 -51 -5 -78 -20 -25
-24 -27 -34 -12 -15 20 -25 10 -25 -26 0 -30 -65 -112 -81 -102 -15 9 -10 46
8 66 35 39 -15 29 -62 -12 -18 -16 -115 -36 -115 -24 0 3 7 18 15 33 15 29 29
37 130 66 127 37 147 78 91 186 -46 87 -47 123 -3 160 17 16 38 28 44 29 7 0
22 -19 34 -42z m2323 6 c13 -28 15 -50 10 -90 -6 -50 -5 -55 25 -85 22 -21 30
-37 26 -50 -7 -22 -25 -25 -44 -6 -11 10 -12 4 -6 -31 5 -32 3 -49 -10 -68
-16 -25 -17 -25 -36 -8 -18 17 -19 16 -19 -14 0 -21 -12 -44 -39 -76 -21 -25
-42 -42 -45 -39 -11 11 -6 48 10 71 9 13 11 22 4 22 -17 0 -68 -29 -77 -44 -4
-7 -32 -16 -60 -20 -48 -6 -52 -5 -46 11 15 44 39 58 145 87 73 21 118 58 118
98 0 16 -16 62 -35 101 -19 39 -35 79 -35 90 0 22 61 87 82 87 8 0 22 -16 32
-36z m-2991 -231 c26 -9 47 -20 47 -25 0 -9 -54 -38 -70 -38 -6 0 -27 12 -47
27 -32 25 -34 28 -17 40 23 17 30 16 87 -4z m2331 -2 l49 -17 -28 -22 c-35
-28 -53 -28 -92 1 -36 27 -40 39 -16 48 25 10 32 10 87 -10z m-1866 -51 c35
-22 40 -35 16 -44 -31 -12 -55 -5 -79 21 -37 44 4 59 63 23z m2329 -5 c24 -21
26 -26 13 -35 -26 -17 -55 -11 -80 16 -21 21 -22 27 -10 34 25 16 47 11 77
-15z m-1930 -11 c8 -22 -16 -43 -55 -48 -38 -4 -40 6 -7 39 28 29 53 32 62 9z
m2329 1 c6 -19 -23 -45 -55 -49 -39 -4 -41 15 -4 44 27 21 54 23 59 5z m-2882
-1297 c9 -12 16 -33 16 -45 0 -29 5 -29 43 3 35 29 47 21 47 -33 0 -26 4 -33
19 -33 10 0 24 -7 31 -15 15 -18 6 -78 -15 -95 -13 -11 -15 -7 -15 21 0 57
-17 14 -30 -77 -8 -58 -18 -88 -31 -100 -27 -24 -24 -34 10 -28 24 5 30 2 40
-23 6 -15 16 -36 23 -45 19 -26 0 -35 -32 -16 l-29 16 -3 -36 c-4 -49 -28 -48
-51 2 l-19 39 -15 -31 c-21 -43 -40 -40 -54 8 -13 42 -29 54 -29 21 0 -52 45
-130 64 -111 15 15 48 12 75 -6 22 -16 24 -15 54 14 75 73 197 82 392 32 99
-26 122 -29 151 -20 23 8 36 20 40 36 14 54 -14 74 -156 110 -215 54 -280 105
-280 219 0 70 22 114 72 146 26 16 46 19 98 17 57 -3 75 -9 145 -51 44 -26 88
-47 98 -47 11 0 23 12 31 30 14 35 26 30 26 -11 0 -75 -72 -79 -190 -9 -47 27
-92 49 -100 49 -8 0 -1 -7 15 -16 17 -9 53 -33 80 -54 28 -21 64 -43 80 -49
26 -10 28 -13 13 -21 -27 -15 -87 5 -152 52 -75 54 -124 62 -160 26 -19 -19
-26 -37 -26 -63 0 -33 8 -45 56 -92 30 -30 58 -51 61 -48 3 3 0 12 -7 21 -10
12 -9 16 3 21 19 7 65 -16 96 -50 29 -31 46 -34 31 -7 -14 27 -13 31 11 31 29
0 75 -29 90 -57 15 -28 29 -30 22 -3 -13 51 57 -5 83 -65 22 -55 18 -93 -15
-126 -25 -25 -37 -29 -83 -29 -30 0 -76 7 -102 16 -49 17 -78 12 -32 -5 37
-15 60 -58 80 -150 19 -92 38 -120 86 -130 35 -7 35 -7 38 -65 3 -55 2 -58
-17 -53 -25 6 -27 -5 -7 -36 14 -22 19 -46 17 -80 -1 -14 -6 -17 -21 -12 -20
6 -20 6 1 -29 14 -24 19 -48 17 -76 l-3 -42 -27 21 c-14 12 -28 21 -31 21 -3
0 -3 -24 0 -52 4 -45 1 -58 -20 -86 l-24 -32 -14 32 c-20 49 -16 103 14 202
34 110 36 201 7 238 -10 14 -44 40 -74 59 -59 35 -70 51 -105 161 -21 64 -58
125 -69 114 -2 -3 1 -12 7 -20 17 -20 -1 -27 -36 -14 -25 9 -39 8 -75 -5 -63
-24 -72 -23 -64 13 8 41 -1 38 -19 -7 -17 -41 -7 -85 23 -102 14 -8 14 -13 4
-36 -10 -22 -17 -26 -37 -21 -23 6 -25 4 -25 -33 0 -43 -13 -59 -34 -42 -18
15 -26 4 -20 -28 3 -18 -5 -43 -27 -80 -27 -46 -33 -52 -41 -37 -5 10 -8 37
-6 62 2 24 1 44 -2 44 -14 0 -50 -33 -50 -46 0 -8 -10 -14 -22 -14 -13 0 -33
-3 -45 -6 -22 -6 -22 -5 -11 27 16 49 24 56 80 75 57 19 118 67 118 95 0 34
-22 66 -82 119 -67 59 -97 114 -98 176 0 48 16 66 50 57 l23 -6 -27 36 c-19
25 -31 58 -41 112 -7 43 -18 82 -25 89 -9 8 -11 4 -5 -21 4 -22 3 -33 -4 -33
-18 0 -52 63 -49 90 2 20 9 25 29 25 24 -1 28 4 32 38 7 51 12 54 47 28 28
-20 31 -21 36 -4 26 80 33 87 58 51z m2285 8 c7 -8 15 -30 18 -50 l5 -35 34
25 34 26 12 -46 c9 -33 17 -46 32 -48 26 -4 34 -50 15 -85 -18 -33 -41 -30
-33 5 6 25 5 26 -10 11 -9 -8 -21 -40 -26 -71 -9 -57 -31 -111 -50 -123 -18
-11 -10 -22 13 -18 18 4 26 -4 45 -42 12 -25 22 -48 22 -50 0 -9 -39 -5 -45 5
-11 18 -22 10 -29 -21 -8 -40 -37 -36 -52 9 -10 32 -24 34 -24 2 0 -9 -7 -25
-15 -36 -15 -19 -15 -19 -30 0 -8 11 -15 35 -15 54 0 19 -4 31 -10 27 -5 -3
-10 -30 -10 -59 0 -39 6 -60 21 -80 l21 -27 25 22 c20 20 28 22 53 12 24 -9
32 -8 46 8 9 11 41 31 71 45 49 24 61 26 150 22 68 -3 128 -13 196 -33 91 -27
101 -28 125 -14 64 35 26 85 -105 139 -117 49 -155 69 -191 103 -91 87 -43
236 87 267 55 13 56 13 192 -32 103 -34 129 -33 129 7 0 15 4 24 10 20 6 -3
10 -24 10 -45 0 -68 -42 -74 -150 -20 -30 15 -71 31 -90 34 -33 7 -31 5 20
-25 95 -55 124 -69 143 -69 10 0 15 -4 12 -10 -3 -5 -27 -10 -53 -10 -38 0
-62 9 -122 45 -85 52 -116 55 -159 19 -46 -38 -41 -93 12 -151 24 -27 37 -29
37 -8 0 8 2 15 5 15 17 0 66 -33 85 -57 l21 -28 -6 28 c-4 19 -1 27 8 27 26 0
82 -46 99 -80 14 -29 17 -31 18 -12 0 12 4 22 8 22 11 0 46 -39 61 -67 25 -48
4 -117 -43 -142 -34 -18 -137 -9 -198 17 -56 25 -67 19 -30 -17 15 -15 42 -43
60 -64 34 -38 76 -62 93 -51 12 7 11 -27 0 -45 -8 -12 -12 -12 -25 -2 -14 12
-15 8 -9 -34 6 -48 6 -48 -20 -41 -24 6 -25 4 -20 -27 3 -23 -2 -46 -17 -75
-25 -48 -29 -48 -40 0 l-7 33 -20 -45 c-12 -25 -30 -50 -41 -57 -18 -11 -21
-9 -27 24 -9 49 8 84 55 113 41 25 74 78 68 107 -2 9 -25 23 -57 34 -56 18
-77 37 -112 102 -23 44 -28 46 -26 10 2 -23 -2 -27 -18 -25 -11 2 -34 6 -52 9
-21 3 -47 -2 -75 -15 -87 -42 -98 -44 -107 -21 -7 20 -9 19 -25 -15 -12 -25
-15 -47 -10 -71 5 -27 2 -41 -11 -55 -17 -19 -18 -19 -37 3 l-19 22 6 -29 c8
-38 -18 -79 -46 -71 -15 5 -19 2 -19 -16 0 -38 -59 -84 -60 -46 -1 6 -7 -4
-14 -24 -7 -21 -23 -49 -34 -64 -18 -23 -23 -25 -28 -11 -4 9 -4 36 0 59 l7
42 -31 -32 c-17 -18 -40 -33 -51 -33 -11 0 -29 -5 -40 -10 -23 -13 -23 -10 -5
35 18 42 43 59 128 85 116 36 158 102 137 213 -9 43 -9 83 0 158 6 56 14 105
17 110 3 5 16 9 30 9 l25 0 -21 28 c-11 15 -26 63 -35 106 -8 44 -20 85 -26
90 -9 8 -10 4 -7 -16 3 -16 2 -28 -3 -28 -15 0 -49 53 -49 76 0 29 33 49 59
35 16 -9 19 -6 25 29 8 51 20 57 51 24 24 -26 25 -26 25 -5 0 26 27 81 39 81
5 0 14 -6 20 -14z m-331 -97 c20 -29 23 -42 18 -84 -3 -27 -9 -98 -12 -157 -6
-89 -4 -116 10 -153 25 -64 77 -85 118 -48 17 15 18 14 18 -23 0 -73 -6 -82
-54 -77 -26 3 -56 -1 -81 -11 -43 -18 -50 -15 -60 32 -6 30 -5 32 22 32 l28 1
-33 27 c-23 19 -34 39 -39 66 -5 34 -4 38 10 33 21 -8 22 11 2 37 -20 26 -19
53 2 65 17 9 16 11 -4 33 -13 13 -29 45 -37 71 -14 45 -13 47 7 47 11 0 29 -7
39 -17 23 -20 24 -3 2 39 -11 22 -14 43 -9 80 8 56 19 58 53 7z m-2282 -19
l27 -40 -17 -84 c-23 -118 -4 -199 67 -273 36 -38 59 -41 87 -13 21 21 23 20
33 -30 3 -14 8 -35 12 -47 6 -18 2 -23 -21 -29 -16 -4 -42 -16 -57 -27 -27
-18 -29 -18 -48 -2 -23 21 -25 45 -4 45 8 0 15 5 15 10 0 6 -11 10 -25 10 -45
0 -104 82 -74 101 11 7 9 12 -9 24 -41 30 -68 105 -37 105 21 0 19 16 -4 32
-24 17 -61 78 -61 101 0 21 12 22 52 1 31 -16 31 -16 24 8 -21 69 -19 148 4
148 5 0 22 -18 36 -40z m2352 -151 c3 -24 -21 -69 -32 -59 -2 3 -2 25 1 48 6
46 26 53 31 11z m-2289 7 c9 -11 8 -22 -6 -50 -21 -45 -33 -46 -33 -2 0 60 15
81 39 52z m2746 -426 c3 -5 18 -10 32 -10 22 0 24 -3 18 -27 -3 -15 -27 -57
-52 -95 -54 -81 -65 -135 -38 -192 18 -37 18 -38 -3 -59 -22 -21 -22 -21 -37
-2 -14 19 -14 19 -15 -5 0 -26 -25 -70 -39 -70 -5 0 -12 10 -16 23 -6 20 -7
20 -15 -10 -4 -18 -13 -40 -20 -48 -14 -17 -40 -20 -40 -5 0 6 -4 10 -9 10 -5
0 -11 -18 -15 -41 -8 -51 -64 -110 -79 -83 -5 9 -7 29 -3 45 8 44 -22 26 -44
-27 -16 -37 -24 -44 -67 -56 -47 -14 -48 -13 -51 8 -7 47 23 77 134 139 112
62 209 142 225 183 6 16 4 43 -7 84 -19 77 -14 96 41 158 25 28 45 60 45 70 0
15 7 20 24 20 14 0 28 -4 31 -10z m-2091 -63 c10 -28 22 -79 26 -113 4 -34 15
-75 25 -92 16 -26 16 -33 5 -46 -10 -12 -16 -14 -26 -5 -11 9 -14 6 -14 -15 0
-40 -18 -68 -39 -61 -15 4 -19 -1 -24 -29 -3 -19 -17 -51 -30 -71 -25 -37 -25
-37 -37 -15 -7 13 -10 38 -7 56 6 37 -11 39 -28 3 -12 -25 -85 -54 -85 -34 0
32 49 82 115 116 92 48 97 64 56 183 -17 49 -31 99 -31 110 0 32 28 66 53 66
17 0 26 -11 41 -53z m-457 -52 c24 -21 26 -26 13 -35 -24 -16 -52 -12 -77 12
l-24 22 23 13 c31 17 33 16 65 -12z m2057 -46 c32 -25 21 -39 -30 -39 -31 0
-81 40 -67 53 14 15 72 6 97 -14z m676 11 c0 -14 -40 -37 -79 -45 -36 -8 -36
-1 -3 38 16 18 82 24 82 7z m-2423 -172 c41 -15 42 -23 2 -37 -43 -15 -61 -14
-85 4 -19 15 -19 15 0 30 24 18 39 19 83 3z m1927 -123 c-2 -13 -114 -79 -121
-71 -12 12 9 57 35 71 29 16 88 16 86 0z m-1629 -84 c-9 -19 -26 -33 -43 -37
-15 -4 -33 -11 -39 -17 -10 -7 -13 -3 -13 15 0 33 25 65 68 87 36 19 37 19 40
1 2 -10 -4 -32 -13 -49z"/>
<path d="M1655 4190 c-17 -19 -17 -21 0 -40 14 -15 16 -29 10 -65 -10 -70 -33
-126 -62 -157 l-27 -28 42 0 c40 0 41 -1 44 -37 4 -52 28 -56 28 -4 l0 41 46
0 46 0 -31 25 c-30 26 -55 86 -67 163 -5 33 -3 47 12 63 17 19 17 20 -2 40
l-20 20 -19 -21z"/>
<path d="M2105 4190 c-17 -19 -17 -21 0 -40 14 -15 16 -29 11 -62 -12 -77 -37
-137 -67 -163 l-31 -25 46 0 c44 0 45 0 48 -37 4 -52 28 -56 28 -4 l0 41 46 0
46 0 -31 25 c-30 26 -55 86 -67 163 -5 33 -3 47 12 63 17 19 17 20 -2 40 l-20
20 -19 -21z"/>
<path d="M1877 3796 c-14 -21 -14 -26 -2 -36 34 -28 5 -169 -46 -219 l-31 -31
40 0 c39 0 40 -1 47 -40 4 -22 10 -40 15 -40 5 0 11 18 15 40 7 39 8 40 47 40
l40 0 -31 31 c-51 50 -80 191 -46 219 12 10 12 15 -2 36 -8 13 -19 24 -23 24
-4 0 -15 -11 -23 -24z"/>
<path d="M1655 3410 c-17 -19 -17 -21 0 -40 14 -15 16 -29 10 -65 -10 -70 -33
-126 -62 -157 l-27 -28 42 0 c40 0 41 -1 44 -37 4 -52 28 -56 28 -4 l0 41 42
0 42 0 -27 28 c-29 31 -52 87 -62 157 -6 37 -4 50 11 66 17 19 17 20 -2 40
l-20 20 -19 -21z"/>
<path d="M2105 3410 c-17 -19 -17 -21 0 -40 14 -15 16 -29 10 -65 -10 -70 -33
-126 -62 -157 l-27 -28 42 0 c40 0 41 -1 44 -37 4 -52 28 -56 28 -4 l0 41 42
0 42 0 -27 28 c-29 31 -52 87 -62 157 -6 37 -4 50 11 66 17 19 17 20 -2 40
l-20 20 -19 -21z"/>
<path d="M1603 2841 c-14 -15 -35 -21 -83 -23 l-65 -3 0 -320 0 -320 63 -3 62
-3 0 -124 0 -125 70 0 70 0 0 125 0 125 180 0 180 0 0 -125 0 -125 70 0 70 0
0 125 0 125 65 0 65 0 -2 323 -3 322 -68 3 c-52 2 -74 8 -90 22 -27 26 -79 26
-102 0 -13 -14 -31 -20 -62 -20 -30 0 -54 7 -70 20 -14 11 -38 20 -53 20 -15
0 -39 -9 -53 -20 -17 -14 -40 -20 -75 -20 -36 0 -54 5 -67 20 -24 26 -78 26
-102 1z m76 -35 c18 -21 10 -126 -10 -139 -35 -22 -49 -2 -49 72 0 67 5 78 36
80 6 1 17 -5 23 -13z m246 4 c11 -19 13 -125 3 -137 -15 -19 -46 -16 -56 5
-10 19 -8 114 3 131 8 14 42 14 50 1z m234 -4 c7 -9 11 -40 9 -78 -3 -63 -3
-63 -33 -63 -30 0 -30 0 -33 63 -3 63 7 92 33 92 7 0 18 -6 24 -14z m-554
-206 c0 -22 -29 -18 -33 3 -3 14 1 18 15 15 10 -2 18 -10 18 -18z m625 6 c0
-8 -5 -18 -11 -22 -14 -8 -33 11 -25 25 10 16 36 13 36 -3z m-224 -84 c22 -11
48 -30 59 -42 25 -27 14 -45 -50 -85 -42 -26 -58 -30 -120 -30 -62 0 -78 4
-120 30 -68 43 -76 59 -43 91 61 61 191 78 274 36z m-396 -213 c0 -12 -29 -24
-37 -16 -3 4 -3 13 0 21 6 16 37 11 37 -5z m620 -5 c0 -17 -26 -19 -36 -3 -7
12 15 31 28 23 4 -3 8 -12 8 -20z m-550 -239 l0 -45 -40 0 -40 0 0 45 0 45 40
0 40 0 0 -45z m500 0 c0 -45 0 -45 -35 -45 -35 0 -35 0 -35 45 0 45 0 45 35
45 35 0 35 0 35 -45z m-500 -80 c0 -11 -11 -15 -40 -15 -29 0 -40 4 -40 15 0
11 11 15 40 15 29 0 40 -4 40 -15z m500 0 c0 -10 -11 -15 -35 -15 -24 0 -35 5
-35 15 0 10 11 15 35 15 24 0 35 -5 35 -15z"/>
<path d="M1828 2506 c-21 -8 -49 -21 -63 -30 l-26 -17 25 -20 c59 -46 131 -60
197 -37 44 15 90 49 82 61 -11 18 -109 57 -143 56 -19 0 -52 -6 -72 -13z m139
-30 c20 -20 -88 -36 -131 -20 -21 8 -20 21 2 28 24 7 120 1 129 -8z"/>
<path d="M261 2796 c-19 -20 -20 -24 -6 -36 36 -30 7 -171 -47 -228 l-33 -35
41 7 c37 5 42 3 48 -17 3 -12 6 -32 6 -44 0 -13 4 -23 9 -23 10 0 21 34 21 68
0 20 3 22 40 16 22 -4 40 -4 40 -1 0 3 -13 19 -29 35 -50 49 -78 186 -47 221
13 14 12 19 -4 38 l-17 22 -22 -23z"/>
<path d="M737 2802 c-21 -23 -21 -31 -1 -53 13 -14 14 -26 4 -80 -13 -71 -28
-105 -59 -133 -31 -28 -26 -37 17 -34 35 3 37 1 40 -27 2 -16 5 -37 8 -45 8
-23 24 8 24 48 l0 34 40 -7 c39 -7 57 6 25 19 -23 8 -63 102 -71 163 -5 46 -4
56 12 67 17 13 17 15 1 40 -21 31 -20 31 -40 8z"/>
<path d="M1205 2794 c-16 -25 -16 -28 -1 -36 34 -19 4 -167 -45 -220 -16 -16
-29 -32 -29 -35 0 -3 18 -2 40 2 39 7 40 6 40 -23 0 -38 9 -64 21 -56 5 3 9
16 9 29 0 46 10 56 46 49 39 -7 44 4 13 32 -28 25 -48 73 -60 143 -8 49 -6 58
11 76 20 21 20 21 -4 44 l-23 22 -18 -27z"/>
<path d="M2556 2794 c-17 -24 -17 -26 0 -38 14 -11 16 -22 10 -67 -8 -63 -48
-157 -71 -165 -32 -13 -14 -26 25 -19 39 7 40 6 40 -23 0 -38 9 -64 21 -56 5
3 9 16 9 29 0 46 10 56 46 49 39 -7 44 4 13 32 -31 28 -46 62 -59 133 -10 54
-9 66 4 80 21 23 20 34 -3 55 -17 16 -19 15 -35 -10z"/>
<path d="M3501 2796 c-20 -21 -20 -24 -5 -37 13 -11 15 -26 12 -74 -6 -66 -26
-114 -67 -159 l-26 -29 41 7 c37 5 42 4 48 -17 3 -12 6 -32 6 -44 0 -13 4 -23
9 -23 10 0 21 34 21 68 0 20 3 22 40 16 22 -4 40 -4 40 -1 0 3 -13 19 -29 35
-50 49 -78 186 -47 221 13 14 12 19 -4 38 l-17 22 -22 -23z"/>
<path d="M3026 2791 c-15 -16 -15 -19 -1 -31 34 -28 4 -172 -46 -222 -16 -16
-29 -32 -29 -35 0 -3 17 -3 39 1 l39 6 6 -45 c9 -58 22 -57 30 0 l7 45 42 -6
42 -7 -26 29 c-41 45 -61 93 -67 159 -3 48 -1 63 12 74 15 13 15 15 0 32 -21
24 -27 24 -48 0z"/>
<path d="M495 2520 c-17 -19 -17 -21 -2 -38 33 -37 8 -157 -44 -217 l-31 -35
40 0 c38 0 40 -1 46 -40 7 -43 26 -55 26 -17 0 54 9 63 53 59 l42 -3 -27 23
c-14 13 -34 39 -43 58 -22 44 -32 154 -16 174 9 11 9 19 -1 35 -16 26 -20 26
-43 1z"/>
<path d="M965 2520 c-17 -19 -17 -21 -2 -38 35 -39 8 -169 -45 -223 l-32 -31
41 3 41 4 7 -42 c8 -54 21 -55 30 -3 7 39 8 40 48 40 l41 0 -33 34 c-54 55
-79 179 -44 218 15 17 15 19 -2 38 -10 11 -21 20 -25 20 -4 0 -15 -9 -25 -20z"/>
<path d="M2792 2519 c-11 -17 -11 -24 1 -37 12 -14 13 -30 6 -80 -10 -73 -30
-118 -67 -150 l-27 -23 42 3 c44 4 53 -5 53 -59 0 -13 4 -23 9 -23 11 0 21 25
21 56 0 21 4 24 41 24 l41 0 -31 35 c-52 60 -77 180 -44 217 15 17 15 19 -2
38 -23 25 -27 25 -43 -1z"/>
<path d="M3265 2520 c-17 -19 -17 -21 0 -40 14 -15 16 -29 10 -65 -10 -70 -33
-126 -62 -157 l-27 -28 42 0 c40 0 41 -1 44 -37 4 -52 28 -56 28 -4 l0 41 46
0 46 0 -31 25 c-30 26 -55 86 -67 163 -5 33 -3 47 12 63 17 19 17 20 -2 40
l-20 20 -19 -21z"/>
<path d="M1876 1911 c-15 -17 -15 -19 0 -32 13 -11 15 -26 12 -74 -6 -66 -26
-114 -67 -159 l-26 -29 42 7 42 6 7 -45 c8 -57 21 -58 30 0 l6 45 42 -6 41 -7
-26 29 c-41 45 -61 93 -67 159 -3 48 -1 63 12 74 15 13 15 15 0 32 -10 11 -20
19 -24 19 -4 0 -14 -8 -24 -19z"/>
<path d="M1655 1510 c-17 -19 -17 -21 0 -40 14 -15 16 -29 10 -65 -10 -70 -33
-126 -63 -158 l-27 -29 40 4 c40 3 40 3 45 -36 7 -55 28 -58 32 -4 l3 43 45
-4 45 -3 -26 21 c-34 27 -57 77 -71 152 -9 53 -8 62 8 80 17 19 17 20 -2 40
l-20 20 -19 -21z"/>
<path d="M2105 1510 c-17 -19 -17 -21 0 -40 14 -15 16 -29 11 -62 -12 -77 -30
-120 -62 -155 l-33 -34 42 3 c42 3 42 2 47 -35 6 -49 24 -49 30 0 5 37 5 38
47 35 l42 -3 -33 34 c-32 35 -50 78 -62 155 -5 34 -3 47 12 63 17 19 17 20 -2
40 l-20 20 -19 -21z"/>
<path d="M1876 1101 c-15 -16 -15 -19 -1 -31 35 -29 0 -189 -51 -229 -34 -27
-30 -35 15 -27 l40 6 7 -45 c8 -57 21 -58 30 0 l6 45 39 -6 c45 -8 49 0 15 27
-51 40 -86 200 -51 229 14 12 14 15 -1 31 -10 11 -20 19 -24 19 -4 0 -14 -8
-24 -19z"/>
<path d="M1655 690 c-17 -19 -17 -21 0 -40 14 -15 16 -29 11 -62 -12 -75 -29
-119 -58 -150 -15 -17 -28 -32 -28 -35 0 -2 17 -3 38 -1 36 3 37 2 42 -35 6
-48 24 -49 30 0 l5 38 45 -3 45 -3 -27 23 c-55 46 -95 192 -63 228 14 15 14
21 3 39 -16 26 -20 26 -43 1z"/>
<path d="M2105 690 c-17 -19 -17 -21 0 -40 14 -15 16 -29 10 -67 -9 -66 -40
-133 -73 -161 l-27 -23 45 3 45 3 5 -38 c6 -49 24 -49 30 0 l5 38 45 -3 45 -3
-27 23 c-33 28 -63 95 -73 161 -5 39 -3 53 11 68 17 19 17 21 -2 40 l-20 20
-19 -21z"/>
<path d="M487 4134 c-10 -10 12 -67 35 -91 31 -33 48 -30 48 11 0 28 -6 38
-39 59 -21 14 -41 24 -44 21z"/>
<path d="M643 4108 c-33 -20 -38 -34 -27 -75 9 -33 18 -29 47 26 41 74 37 85
-20 49z"/>
<path d="M523 3975 c-13 -35 46 -159 73 -153 18 4 78 134 69 149 -4 6 -24 7
-50 4 -25 -4 -51 -2 -64 4 -17 10 -22 9 -28 -4z m97 -54 c0 -58 -32 -94 -44
-48 -12 44 -7 57 19 57 14 0 25 -4 25 -9z"/>
<path d="M2814 4103 c9 -36 39 -77 58 -81 10 -2 18 7 21 25 5 23 0 33 -26 55
-42 36 -61 36 -53 1z"/>
<path d="M2967 4109 c-35 -19 -38 -23 -32 -52 11 -52 21 -51 54 6 44 76 42 80
-22 46z"/>
<path d="M2851 3981 c-15 -9 -11 -28 21 -103 31 -72 78 -75 94 -5 3 18 13 45
21 61 14 27 14 31 -3 43 -12 9 -21 10 -28 3 -13 -13 -52 -13 -75 -1 -9 5 -23
6 -30 2z m89 -85 c0 -61 -32 -60 -43 2 -6 29 -4 32 18 32 22 0 25 -4 25 -34z"/>
<path d="M500 1793 c0 -12 41 -77 53 -85 18 -11 27 1 27 33 0 25 -6 33 -35 45
-39 16 -45 17 -45 7z"/>
<path d="M670 1790 c-8 -5 -23 -11 -32 -14 -19 -6 -24 -41 -9 -64 6 -10 16 -2
40 29 40 55 41 72 1 49z"/>
<path d="M530 1646 c0 -26 36 -84 63 -100 15 -9 23 -6 42 19 57 71 55 120 -4
96 -21 -9 -35 -10 -49 -2 -34 18 -52 13 -52 -13z m90 -46 c0 -33 -9 -43 -27
-29 -21 18 -16 55 7 55 15 0 20 -7 20 -26z"/>
<path d="M2790 1793 c0 -26 38 -85 53 -80 7 2 12 16 12 31 0 19 -9 32 -32 47
-31 20 -33 20 -33 2z"/>
<path d="M2927 1782 c-34 -13 -38 -19 -35 -46 4 -41 20 -39 57 8 47 59 43 65
-22 38z"/>
<path d="M2804 1666 c-3 -9 6 -41 21 -71 35 -72 54 -72 94 -1 34 60 33 93 -3
81 -27 -9 -55 -9 -83 0 -17 5 -24 3 -29 -9z m88 -61 c-4 -24 -19 -42 -27 -33
-2 1 -6 15 -10 31 -6 24 -4 27 18 27 21 0 24 -4 19 -25z"/>
<path d="M5735 4359 c-178 -24 -380 -101 -509 -193 -78 -56 -200 -185 -244
-259 -55 -91 -102 -212 -125 -315 -27 -127 -28 -358 -3 -477 89 -410 357 -688
762 -791 250 -63 561 -47 820 42 91 31 260 104 319 137 l40 23 26 229 c15 127
24 233 20 236 -3 4 -32 9 -64 13 -50 5 -58 4 -63 -11 -76 -244 -195 -399 -370
-484 -103 -50 -191 -69 -325 -69 -398 0 -699 282 -769 723 -18 108 -8 339 18
438 46 172 114 293 231 409 100 99 208 160 332 186 90 19 265 14 354 -10 134
-37 263 -121 355 -231 45 -54 116 -191 126 -244 6 -27 10 -32 28 -27 12 3 40
8 64 12 24 4 42 12 42 19 0 13 -76 407 -87 453 -7 28 -40 44 -227 108 -196 67
-291 84 -501 89 -99 2 -211 0 -250 -6z"/>
<path d="M7486 3507 c-289 -697 -320 -766 -375 -829 -49 -55 -92 -72 -167 -66
l-54 5 0 -39 0 -38 325 0 325 0 0 38 0 38 -68 -4 c-102 -6 -152 25 -152 95 0
15 23 90 52 166 l51 137 252 0 252 0 52 -137 c56 -150 63 -201 31 -233 -26
-26 -59 -33 -125 -28 l-55 5 0 -39 0 -38 410 0 410 0 0 39 0 39 -44 -5 c-73
-9 -113 4 -160 50 -87 85 -148 216 -441 950 l-199 497 -35 0 -36 0 -249 -603z
m283 -145 c50 -128 91 -236 91 -240 0 -7 -381 -4 -388 3 -4 4 163 455 181 490
10 19 10 19 18 0 4 -11 48 -125 98 -253z"/>
<path d="M18285 4043 c-196 -30 -388 -127 -491 -246 -247 -287 -240 -782 14
-1059 147 -159 341 -233 612 -233 136 0 162 4 412 55 l267 54 -2 256 c-2 278
0 293 55 333 21 15 43 20 97 20 l71 0 0 43 0 44 -370 0 -370 0 0 -44 0 -43 65
0 c51 1 71 -4 93 -20 50 -37 52 -49 49 -308 l-2 -240 -60 -17 c-79 -22 -241
-23 -320 -3 -284 75 -465 343 -465 691 0 321 162 560 426 629 75 19 214 19
289 0 137 -36 237 -126 308 -276 l42 -89 45 6 c25 4 49 10 54 15 8 7 -11 120
-55 330 l-10 45 -187 29 c-180 27 -479 42 -567 28z"/>
<path d="M11388 4023 l-348 -3 0 -38 0 -37 99 0 c200 0 211 -32 211 -665 0
-510 -11 -591 -83 -644 -25 -18 -43 -21 -138 -21 l-109 0 0 -37 0 -36 413 -4
c576 -4 652 3 806 78 129 63 199 158 221 297 19 125 -20 262 -95 324 -44 38
-141 80 -215 94 -99 18 -99 19 -30 42 131 44 215 111 258 206 21 45 26 71 26
136 0 96 -24 154 -84 209 -94 84 -182 107 -415 103 -93 -1 -326 -3 -517 -4z
m547 -94 c74 -28 140 -94 160 -161 20 -68 19 -93 -6 -174 -50 -160 -233 -259
-411 -221 l-38 8 0 269 0 269 43 11 c23 6 47 13 52 15 33 12 150 3 200 -16z
m-66 -650 c92 -15 154 -44 204 -98 55 -59 72 -106 71 -201 0 -144 -62 -251
-178 -310 -66 -33 -74 -35 -165 -33 -53 1 -109 5 -126 10 l-30 9 0 310 0 309
35 6 c57 10 121 10 189 -2z"/>
<path d="M13013 4023 l-303 -3 0 -38 0 -37 79 3 c151 7 202 -40 222 -204 15
-119 6 -956 -10 -1007 -17 -52 -66 -105 -110 -118 -21 -6 -75 -10 -119 -8
l-82 4 0 -37 0 -38 465 0 465 0 0 38 0 37 -103 0 c-122 0 -147 12 -180 83 -20
43 -22 66 -25 290 l-4 242 29 0 c16 0 53 -7 83 -16 97 -29 161 -112 331 -428
73 -136 121 -196 182 -225 40 -19 61 -21 260 -21 l217 0 0 40 0 40 -38 -6
c-120 -19 -215 70 -362 336 -102 184 -151 245 -251 310 l-57 37 65 13 c226 45
345 220 303 445 -23 122 -100 201 -238 246 -60 20 -91 22 -292 24 -124 1 -361
0 -527 -2z m594 -99 c63 -30 106 -80 134 -154 27 -72 23 -211 -9 -282 -50
-112 -151 -167 -319 -176 l-103 -5 0 311 0 311 38 10 c98 26 184 21 259 -15z"/>
<path d="M15943 4023 l-313 -3 0 -38 0 -37 98 0 c210 0 221 -34 221 -660 0
-540 -12 -615 -105 -657 -40 -17 -62 -20 -140 -16 l-94 4 0 -38 0 -37 423 -3
c479 -3 584 2 715 37 295 79 496 275 573 560 29 107 32 337 6 435 -60 223
-215 367 -467 431 -75 19 -115 22 -345 23 -143 1 -401 1 -572 -1z m696 -98
c181 -48 299 -172 353 -372 25 -94 29 -296 9 -413 -45 -254 -172 -428 -359
-492 -87 -29 -237 -30 -327 -1 l-60 19 -3 614 c-1 371 2 618 7 623 34 34 282
49 380 22z"/>
<path d="M8720 3983 l0 -38 58 3 c86 5 127 -15 155 -75 22 -48 22 -52 22 -578
0 -505 -1 -533 -20 -584 -29 -78 -58 -96 -151 -96 l-74 0 0 -37 0 -38 325 0
325 0 0 39 0 38 -49 -5 c-69 -6 -115 4 -151 35 -65 55 -65 48 -67 578 l-2 480
164 -330 c90 -181 214 -442 277 -578 l113 -248 49 3 48 3 132 300 c133 301
353 783 381 833 13 24 14 -26 12 -458 -2 -475 -2 -486 -24 -532 -31 -67 -71
-90 -150 -86 l-63 4 0 -38 0 -38 420 0 420 0 0 38 0 37 -89 0 c-86 0 -91 1
-121 30 -63 60 -65 83 -65 645 0 480 1 508 20 559 29 80 57 96 161 96 l84 0 0
38 0 37 -294 0 -293 0 -43 -97 c-167 -383 -438 -963 -450 -963 -4 0 -123 238
-266 530 l-259 530 -267 0 -268 0 0 -37z"/>
<path d="M14500 3983 l0 -38 84 3 c115 5 168 -17 199 -85 22 -47 22 -57 25
-543 3 -518 -1 -584 -39 -647 -30 -48 -88 -66 -199 -61 l-90 4 0 -38 0 -38
490 0 490 0 0 38 0 37 -114 0 c-100 0 -118 3 -143 21 -73 53 -83 132 -83 654
1 508 10 581 83 634 25 18 43 21 138 21 l109 0 0 38 0 37 -475 0 -475 0 0 -37z"/>
<path d="M19420 3983 l0 -38 79 3 c111 5 163 -18 194 -85 22 -48 22 -52 22
-583 l0 -535 -24 -49 c-34 -69 -82 -89 -202 -84 l-89 3 0 -38 0 -37 671 2 672
3 63 180 c35 99 66 187 69 196 4 12 -5 21 -35 33 -22 9 -44 16 -48 16 -5 0
-22 -31 -40 -68 -63 -138 -135 -199 -256 -221 -33 -6 -151 -11 -263 -11 l-203
0 0 305 0 305 170 0 c182 0 217 -7 255 -50 16 -17 20 -36 20 -86 l0 -64 43 0
42 0 0 250 0 250 -43 0 -43 0 4 -37 c5 -59 -18 -114 -57 -137 -30 -18 -58 -21
-213 -24 l-178 -4 0 260 c0 236 2 260 17 266 10 4 66 12 125 18 194 20 377
-11 447 -75 26 -24 71 -112 71 -139 0 -19 17 -22 67 -12 l29 6 -22 126 c-13
70 -26 142 -29 160 l-6 32 -654 0 -655 0 0 -37z"/>
<path d="M11890 1809 c-127 -22 -219 -92 -246 -187 -31 -106 -3 -191 86 -256
30 -22 111 -70 179 -106 180 -95 226 -148 206 -240 -8 -38 -56 -95 -98 -116
-39 -21 -137 -20 -179 2 -74 37 -123 106 -135 189 -5 41 -8 45 -34 45 -26 0
-28 -3 -34 -52 -3 -29 -5 -93 -3 -143 l3 -89 90 -19 c124 -25 306 -20 386 11
69 27 131 79 167 140 23 41 27 58 27 127 0 143 -48 195 -290 314 -168 83 -210
120 -209 184 0 24 9 55 18 69 42 64 175 88 263 48 51 -23 99 -92 109 -156 6
-40 9 -44 35 -44 l29 0 0 123 0 122 -88 17 c-115 23 -215 29 -282 17z"/>
<path d="M19391 1809 c-160 -28 -253 -124 -255 -260 -1 -119 39 -163 262 -283
188 -101 222 -133 222 -211 0 -95 -82 -167 -190 -166 -112 0 -198 75 -222 191
-11 55 -14 60 -39 60 l-27 0 -7 -112 c-11 -180 -16 -170 90 -190 166 -32 331
-21 428 29 91 47 157 148 157 242 0 142 -54 202 -282 315 -183 90 -218 121
-218 191 0 82 69 135 178 135 108 0 175 -54 208 -167 13 -45 19 -53 40 -53
l24 0 0 123 0 122 -88 17 c-115 23 -215 29 -281 17z"/>
<path d="M20325 1814 c-108 -17 -200 -71 -242 -142 -24 -40 -28 -58 -28 -123
0 -65 4 -81 27 -117 32 -48 103 -97 247 -173 174 -91 225 -151 201 -238 -40
-150 -239 -181 -349 -55 -36 40 -49 70 -60 129 -6 36 -10 40 -39 43 l-33 3 3
-142 3 -143 85 -18 c94 -19 261 -23 328 -8 121 28 220 110 248 206 31 108 -1
217 -83 280 -21 16 -112 67 -203 114 -186 96 -216 124 -207 193 11 82 74 127
178 127 115 0 185 -56 210 -167 11 -49 14 -53 41 -53 l28 0 0 125 0 125 -27 0
c-16 0 -53 7 -83 15 -58 15 -196 26 -245 19z"/>
<path d="M4950 1775 c0 -23 4 -25 41 -25 104 0 111 -23 116 -385 5 -327 10
-356 72 -427 95 -108 292 -154 482 -114 89 19 138 46 188 102 73 83 83 135 88
444 4 306 6 324 38 356 20 20 34 24 85 24 57 0 60 1 60 25 l0 25 -225 0 -225
0 0 -25 c0 -24 3 -25 56 -25 66 0 88 -10 111 -53 16 -28 18 -64 18 -317 0
-315 -1 -321 -65 -394 -57 -65 -100 -81 -215 -81 -118 0 -166 19 -214 85 -49
68 -56 118 -56 410 1 332 7 350 124 350 48 0 51 2 51 25 l0 25 -265 0 -265 0
0 -25z"/>
<path d="M6200 1775 c0 -24 3 -25 58 -25 37 0 66 -6 81 -16 48 -34 51 -59 51
-421 0 -302 -2 -342 -18 -373 -22 -45 -55 -61 -115 -58 -45 3 -47 2 -47 -24
l0 -28 215 0 215 0 0 24 c0 21 -5 24 -51 28 -61 6 -96 36 -109 94 -5 21 -10
169 -10 329 0 285 0 289 19 270 18 -19 255 -317 498 -628 64 -81 119 -146 122
-145 3 2 23 12 43 22 l36 19 4 401 c3 344 6 406 20 437 22 50 53 69 110 69 45
0 48 2 48 25 l0 25 -215 0 -215 0 0 -25 c0 -24 3 -25 55 -25 46 0 60 -4 80
-24 40 -40 46 -87 43 -356 l-3 -251 -106 128 c-119 144 -321 396 -392 491
l-48 62 -185 0 -184 0 0 -25z"/>
<path d="M7490 1775 c0 -24 3 -25 60 -25 51 0 64 -4 91 -28 29 -26 32 -35 41
-122 5 -52 8 -214 6 -360 -4 -227 -7 -270 -22 -298 -23 -43 -73 -65 -143 -60
-52 3 -53 3 -53 -25 l0 -27 318 2 317 3 3 23 c3 21 0 22 -65 22 -86 0 -127 22
-142 77 -14 50 -14 665 -1 715 17 58 50 78 131 78 67 0 69 1 69 25 l0 25 -305
0 -305 0 0 -25z"/>
<path d="M8140 1775 c0 -24 3 -25 58 -25 72 0 94 -15 131 -88 27 -53 204 -495
301 -749 42 -111 43 -113 74 -113 l31 0 109 293 c199 531 223 589 261 625 30
27 42 32 85 32 47 0 50 2 50 25 l0 25 -195 0 -195 0 0 -25 c0 -23 3 -25 48
-25 65 0 89 -24 73 -72 -36 -107 -207 -558 -211 -558 -6 0 -221 571 -220 586
0 24 37 44 83 44 43 0 47 2 47 25 l0 25 -265 0 -265 0 0 -25z"/>
<path d="M9290 1775 c0 -24 3 -25 58 -25 65 0 93 -15 120 -63 15 -29 17 -67
17 -362 0 -366 -4 -392 -59 -426 -22 -13 -50 -19 -94 -19 -60 0 -63 -1 -60
-22 l3 -23 436 -3 436 -2 44 130 c38 112 42 132 29 140 -30 19 -47 10 -70 -41
-34 -71 -85 -115 -152 -128 -30 -7 -112 -10 -184 -9 l-129 3 0 195 0 195 107
3 c83 2 115 -1 138 -13 35 -18 54 -58 45 -92 -5 -20 -2 -23 25 -23 l30 0 0
160 0 160 -31 0 c-25 0 -29 -3 -24 -19 3 -11 -1 -35 -9 -55 -19 -45 -63 -58
-188 -54 l-93 3 -3 167 -2 167 37 8 c57 12 232 8 282 -6 53 -15 99 -58 107
-101 8 -36 17 -44 44 -35 24 8 24 16 4 128 l-16 87 -424 0 -424 0 0 -25z"/>
<path d="M10370 1776 c0 -25 2 -26 58 -26 67 0 98 -17 118 -66 21 -49 20 -689
0 -739 -20 -47 -64 -67 -137 -63 -59 3 -59 3 -59 -25 l0 -27 303 2 c300 3 302
3 305 24 3 20 -2 22 -68 26 -58 3 -74 8 -95 28 -33 33 -45 103 -45 253 l0 120
46 -6 c82 -9 130 -62 233 -257 95 -178 115 -190 319 -190 l122 0 0 29 c0 23
-4 28 -19 24 -33 -8 -96 16 -128 49 -18 18 -62 85 -98 148 -84 144 -107 175
-162 214 l-44 31 56 17 c104 30 155 82 175 175 24 111 -23 212 -120 257 -42
20 -65 21 -402 24 l-358 3 0 -25z m581 -42 c84 -43 121 -160 84 -265 -32 -89
-97 -128 -212 -129 l-73 0 0 199 0 200 43 10 c49 11 121 5 158 -15z"/>
<path d="M12520 1775 c0 -24 2 -25 64 -25 132 0 139 -23 134 -465 -3 -281 -5
-324 -20 -352 -21 -38 -69 -56 -138 -51 -49 3 -50 2 -50 -24 l0 -28 315 0 315
0 0 28 c0 27 0 27 -59 24 -67 -4 -111 13 -138 55 -16 24 -18 62 -21 343 -2
173 0 335 3 359 5 32 16 54 40 78 31 31 37 33 104 33 69 0 71 1 71 25 l0 25
-310 0 -310 0 0 -25z"/>
<path d="M13236 1698 c-4 -57 -9 -115 -12 -130 -5 -26 -3 -28 26 -28 34 0 36
3 45 73 4 32 16 59 34 79 28 31 29 32 127 32 l99 1 0 -375 c0 -360 -1 -376
-21 -410 -25 -43 -56 -60 -112 -60 -39 0 -43 -2 -40 -22 l3 -23 273 -3 272 -2
0 27 c0 27 -2 28 -54 28 -66 0 -89 18 -105 80 -7 28 -11 175 -11 406 l0 362
94 -6 c133 -8 149 -20 171 -127 11 -51 14 -55 41 -58 l30 -3 -13 123 c-6 68
-12 126 -12 131 -1 4 -187 7 -415 7 l-413 0 -7 -102z"/>
<path d="M14130 1776 c0 -22 4 -24 70 -28 89 -5 86 -2 274 -272 l146 -209 0
-144 c0 -101 -4 -154 -14 -178 -18 -42 -65 -68 -117 -63 -37 3 -39 2 -39 -24
l0 -28 273 2 272 3 3 23 c3 20 0 22 -47 22 -39 0 -56 6 -80 26 -42 35 -51 77
-51 231 l0 133 146 221 c96 144 158 228 178 240 20 12 50 19 84 19 49 0 52 2
52 25 l0 25 -200 0 -200 0 0 -25 c0 -23 4 -25 41 -25 49 0 79 -15 79 -39 0
-19 -207 -351 -218 -351 -10 1 -232 333 -232 347 0 24 32 43 71 43 35 0 39 3
39 25 l0 25 -265 0 -265 0 0 -24z"/>
<path d="M15780 1776 c0 -25 3 -26 55 -26 66 0 106 -18 125 -57 19 -37 28
-631 10 -709 -16 -76 -45 -99 -126 -99 -63 0 -64 0 -64 -28 l0 -27 293 2 292
3 3 23 c3 20 0 22 -48 22 -66 0 -115 21 -134 58 -10 20 -17 77 -22 180 l-7
152 115 0 c227 0 356 79 388 237 24 116 -19 213 -116 263 l-48 25 -358 3 -358
3 0 -25z m573 -40 c44 -18 95 -78 103 -122 4 -20 4 -63 1 -96 -10 -116 -86
-180 -213 -180 -36 0 -70 4 -75 9 -5 5 -8 89 -7 198 l3 189 25 7 c43 12 129
10 163 -5z"/>
<path d="M16810 1776 c0 -25 2 -26 58 -26 67 0 98 -17 118 -66 21 -49 20 -689
0 -739 -20 -47 -64 -67 -137 -63 -59 3 -59 3 -59 -25 l0 -27 303 2 c300 3 302
3 305 24 3 20 -2 22 -67 26 -120 6 -141 48 -141 273 l0 125 30 0 c85 0 135
-51 240 -246 41 -74 87 -146 102 -159 42 -36 89 -45 226 -45 l122 0 0 29 c0
23 -4 28 -19 24 -10 -2 -36 0 -59 6 -50 14 -100 69 -161 177 -76 135 -113 185
-164 222 l-49 36 66 21 c122 39 171 114 164 249 -3 66 -7 79 -34 113 -17 21
-53 49 -80 63 l-48 25 -358 3 -358 3 0 -25z m581 -42 c57 -29 99 -105 99 -180
0 -51 -28 -128 -57 -156 -42 -41 -94 -58 -173 -58 l-70 0 0 199 0 200 43 10
c49 11 121 5 158 -15z"/>
<path d="M17970 1775 c0 -24 3 -25 55 -25 70 0 112 -21 131 -65 22 -53 20
-693 -2 -740 -21 -45 -71 -68 -140 -63 -53 3 -54 3 -54 -25 l0 -27 438 2 437
3 42 120 c23 66 42 125 42 132 1 6 -12 15 -27 21 -28 10 -30 8 -60 -53 -56
-114 -106 -134 -325 -135 l-137 0 2 198 3 197 90 3 c154 5 195 -13 195 -88 0
-38 2 -40 30 -40 l30 0 0 160 0 160 -30 0 c-28 0 -30 -2 -30 -40 0 -74 -47
-94 -205 -88 l-80 3 -3 167 -2 167 37 8 c60 13 223 9 276 -6 54 -15 104 -65
114 -112 6 -29 25 -37 51 -20 12 7 11 25 -4 110 l-17 101 -429 0 -428 0 0 -25z"/>
</g>
</svg>
