<?xml version="1.0" standalone="no"?>
<!DOCTYPE svg PUBLIC "-//W3C//DTD SVG 20010904//EN"
 "http://www.w3.org/TR/2001/REC-SVG-20010904/DTD/svg10.dtd">
<svg version="1.0" xmlns="http://www.w3.org/2000/svg"
 width="111.000000pt" height="150.000000pt" viewBox="0 0 111.000000 150.000000"
 preserveAspectRatio="xMidYMid meet">

<g transform="translate(0.000000,150.000000) scale(0.100000,-0.100000)"
fill="#000000" stroke="none">
<path d="M541 1454 c-9 -21 -14 -24 -26 -14 -9 8 -15 8 -15 2 0 -6 11 -19 25
-30 21 -17 22 -21 9 -26 -26 -10 -32 -7 -37 17 -4 22 -4 22 -6 -2 0 -13 -17
-41 -36 -62 -29 -33 -35 -46 -34 -82 l1 -42 9 49 c10 62 39 93 106 112 29 8
59 24 66 35 8 10 17 16 20 12 4 -3 7 -1 7 6 0 8 -7 10 -20 6 -15 -5 -22 0 -30
19 -12 33 -24 33 -39 0z m46 -50 c-3 -4 -18 -4 -32 0 -25 6 -25 7 -9 38 l16
31 15 -32 c9 -17 13 -34 10 -37z"/>
<path d="M577 1351 c-40 -39 -48 -52 -45 -76 3 -27 7 -30 38 -30 29 0 36 4 38
23 2 14 -5 33 -17 46 l-21 23 24 12 c30 17 59 2 86 -42 12 -20 20 -26 20 -16
0 10 -17 32 -37 50 -21 18 -37 39 -35 46 4 17 4 18 -51 -36z m13 -52 c15 -27
6 -49 -19 -49 -26 0 -34 15 -27 46 8 29 31 31 46 3z"/>
<path d="M503 1328 c-20 -26 -21 -47 -3 -82 10 -20 15 -36 10 -36 -16 0 -39
37 -43 70 l-4 35 -1 -33 c-1 -18 3 -42 8 -53 8 -13 7 -19 0 -19 -6 0 -13 6
-16 14 -4 11 -11 8 -31 -10 -20 -19 -24 -27 -15 -36 21 -21 13 -43 -28 -83
-22 -21 -40 -35 -40 -29 0 5 5 15 12 22 13 13 15 19 24 71 4 18 3 32 -2 29 -5
-2 -25 -11 -45 -20 -19 -9 -41 -24 -49 -32 -7 -9 -18 -16 -24 -16 -15 0 -38
-38 -30 -51 8 -13 43 18 55 49 5 13 15 22 22 19 6 -2 22 5 34 16 28 25 39 17
22 -15 -7 -12 -12 -28 -11 -35 3 -15 -15 -26 -48 -29 l-25 -3 25 20 c14 10 17
17 8 13 -9 -3 -34 -27 -55 -52 l-38 -47 36 28 c39 29 91 39 70 13 -17 -20 -99
-47 -107 -35 -3 5 -1 16 6 24 7 9 8 15 0 20 -5 3 -10 1 -10 -5 0 -6 -7 -4 -16
5 -9 9 -23 14 -31 11 -8 -3 -17 -6 -19 -6 -2 0 -4 -11 -4 -24 0 -14 -4 -27 -9
-31 -19 -11 -71 -96 -71 -115 0 -10 -4 -20 -10 -22 -5 -2 1 -25 15 -53 13 -27
20 -51 15 -53 -5 -2 -6 -10 -3 -18 3 -7 -2 -17 -11 -20 -25 -10 -31 3 -13 24
17 19 14 32 -9 32 -16 0 -26 -28 -17 -45 5 -7 26 -26 48 -40 22 -15 33 -20 26
-11 -8 9 -12 19 -9 21 10 10 28 -23 22 -39 -5 -13 -10 -13 -27 -4 -19 10 -19
8 4 -19 15 -19 27 -26 32 -19 5 8 10 6 17 -4 12 -19 12 -27 0 -35 -6 -4 -8
-11 -5 -16 4 -5 4 -9 1 -9 -3 0 -18 18 -32 40 -15 22 -30 37 -35 34 -5 -3 -10
2 -10 10 -3 36 -5 40 -16 43 -9 3 -9 -6 2 -38 12 -32 12 -44 4 -50 -9 -5 -8
-12 5 -24 9 -10 15 -23 12 -30 -5 -15 54 -59 103 -76 24 -8 29 -14 19 -20 -7
-5 -20 -6 -30 -3 -9 2 -19 0 -23 -6 -5 -8 -13 -6 -26 6 -18 16 -19 16 -19 -5
0 -12 4 -20 10 -16 5 3 17 -9 26 -27 9 -18 23 -41 32 -50 10 -12 11 -18 3 -18
-6 0 -21 16 -32 35 -12 19 -23 35 -26 35 -3 0 -3 -20 0 -45 4 -25 3 -45 -3
-45 -12 0 -64 69 -57 76 3 3 13 -8 23 -25 24 -41 31 -39 26 7 -4 27 -7 32 -11
18 -7 -17 -9 -16 -24 8 -10 14 -21 26 -25 26 -4 0 -8 -28 -8 -63 -2 -56 -1
-58 6 -22 l8 40 0 -50 c0 -27 0 -56 1 -63 0 -6 29 -33 64 -58 60 -44 62 -48
67 -97 3 -33 10 -52 20 -54 13 -4 13 -3 0 6 -19 14 -19 14 70 -3 172 -32 458
-29 598 7 28 8 52 11 52 6 0 -4 -14 -10 -31 -14 -40 -9 -32 -17 9 -9 l32 7 0
67 0 67 58 36 c61 38 76 60 87 124 l7 38 -27 -32 c-14 -18 -35 -33 -46 -33
-19 0 -20 5 -15 58 6 72 6 71 16 47 8 -17 9 -16 9 9 1 28 1 28 -25 11 -18 -12
-29 -13 -38 -6 -20 17 -38 -7 -23 -30 9 -14 9 -21 0 -30 -16 -16 -33 -2 -34
29 0 15 -3 21 -6 15 -2 -7 -10 -13 -16 -13 -23 0 37 48 68 54 18 4 39 13 45
21 11 13 9 13 -16 0 -48 -25 -62 -17 -25 13 53 42 103 51 69 12 -11 -12 -10
-12 4 -1 10 7 18 20 18 28 0 8 9 28 20 43 13 18 16 30 9 32 -8 3 -7 14 5 36 9
18 14 32 11 32 -16 0 -74 -30 -81 -41 -5 -9 1 -8 19 3 39 27 50 22 32 -12 -9
-17 -13 -35 -10 -41 10 -16 -13 -36 -40 -36 l-25 0 22 30 c12 17 17 27 10 23
-11 -7 -18 15 -12 39 2 6 4 19 5 30 1 14 8 19 23 17 28 -4 37 15 13 27 -19 11
-22 26 -8 49 5 6 4 12 -1 12 -5 0 -8 21 -7 48 l3 47 -8 -40 -7 -40 -2 50 c-1
28 -6 59 -11 70 -6 14 -8 6 -4 -25 3 -33 2 -40 -5 -25 -5 11 -10 14 -10 8 -1
-22 -21 -14 -21 8 0 12 4 17 11 13 8 -4 9 1 3 17 -9 27 -11 76 -3 99 3 8 4 12
2 8 -8 -14 -51 -8 -57 8 -3 9 -11 12 -18 8 -8 -5 -9 -2 -5 9 3 9 3 16 -1 16
-4 -1 -10 0 -14 1 -5 1 -14 3 -20 4 -7 1 -12 7 -11 13 1 6 -7 19 -19 29 -12
11 -18 13 -13 5 6 -11 4 -13 -11 -8 -18 7 -18 6 1 -8 11 -9 20 -20 20 -24 0
-5 11 -18 25 -29 l25 -21 -40 6 c-37 6 -39 5 -26 -11 8 -9 11 -19 8 -22 -8 -8
-38 3 -35 13 1 4 -4 19 -11 32 -10 19 -15 21 -22 10 -6 -10 -10 -5 -15 18 -3
18 -13 38 -20 44 -18 14 -17 27 0 61 10 19 11 30 4 34 -7 4 -8 2 -4 -4 5 -9
-8 -12 -44 -12 -50 0 -61 -12 -20 -23 11 -3 18 -1 14 4 -3 5 4 9 15 9 25 0 27
-22 5 -44 -12 -13 -39 -16 -124 -16 l-108 0 -11 30 c-9 27 -8 30 10 30 10 0
19 -5 19 -11 0 -8 4 -8 14 0 12 10 15 8 18 -11 3 -26 38 -39 38 -14 0 9 5 16
11 16 5 0 7 5 3 11 -4 7 1 9 12 7 11 -2 18 -10 16 -17 -1 -7 2 -10 8 -6 5 3
10 -1 10 -10 0 -19 22 -15 28 5 3 7 0 10 -6 6 -6 -3 -13 3 -17 14 -9 29 -75
29 -75 0 0 -11 -5 -20 -11 -20 -6 0 -9 9 -6 20 4 17 -1 19 -47 23 -28 2 13 4
90 5 138 2 142 3 148 25 8 32 7 39 -4 32 -6 -4 -13 7 -16 25 -4 17 -11 33 -16
36 -6 4 -7 -2 -2 -17 19 -59 2 -84 -59 -87 -32 -1 -52 4 -71 19 -30 24 -35 69
-10 93 8 9 11 16 6 16 -5 0 -14 -6 -19 -12z m-69 -246 c-73 -113 -208 -292
-220 -292 -18 0 -18 14 1 30 8 7 12 17 9 22 -3 5 2 16 12 23 11 8 15 15 10 15
-5 0 1 11 14 25 17 18 19 25 9 26 -8 0 -2 6 12 12 15 7 27 16 27 21 0 4 19 28
43 52 23 24 40 46 37 49 -3 3 -21 -12 -40 -34 -19 -23 -38 -38 -41 -34 -10 9
103 109 125 110 19 2 19 1 2 -25z m196 18 c-8 -5 -42 -10 -75 -10 -33 0 -67 5
-75 10 -10 7 13 10 75 10 62 0 85 -3 75 -10z m109 -65 c11 0 26 -13 27 -26 1
-5 2 -13 3 -17 0 -5 11 -19 22 -31 18 -20 28 -22 63 -17 29 4 37 3 26 -4 -8
-5 -23 -10 -32 -10 -22 0 -22 -2 1 -51 11 -22 18 -46 15 -54 -3 -8 6 -17 23
-22 28 -10 28 -10 5 -17 -13 -4 -25 -6 -26 -4 -1 1 -38 55 -81 118 -94 138
-90 135 -92 110 -1 -11 4 -19 10 -17 7 1 11 -6 11 -15 -1 -10 3 -15 9 -11 6 3
7 1 3 -6 -11 -16 -26 -3 -19 16 4 11 2 14 -5 9 -16 -9 -34 28 -20 42 7 7 4 19
-10 40 -32 45 -12 49 25 5 18 -21 37 -38 42 -38z m-497 43 c-7 -7 -12 -8 -12
-2 0 14 12 26 19 19 2 -3 -1 -11 -7 -17z m125 -264 c-110 -221 -123 -241 -130
-217 -5 16 -9 35 -9 43 -1 8 -5 18 -10 21 -5 3 50 95 122 204 72 108 129 200
126 203 -3 3 -6 0 -6 -6 0 -7 -6 -11 -12 -9 -8 1 -12 -6 -10 -16 2 -10 -3 -16
-10 -15 -8 2 -12 -5 -10 -17 2 -17 1 -18 -9 -5 -9 13 -10 12 -5 -3 3 -10 2
-16 -3 -13 -5 3 -8 -2 -7 -11 0 -10 -4 -18 -11 -18 -6 0 -15 -4 -20 -9 -5 -5
-2 -6 6 -1 9 5 12 3 9 -5 -3 -11 -38 -25 -38 -15 0 2 25 40 56 85 53 77 57 80
75 65 17 -16 13 -27 -104 -261z m153 216 c0 -22 -4 -40 -10 -40 -5 0 -10 18
-10 40 0 22 5 40 10 40 6 0 10 -18 10 -40z m30 0 c0 -22 -4 -40 -10 -40 -5 0
-10 18 -10 40 0 22 5 40 10 40 6 0 10 -18 10 -40z m50 0 c0 -33 -3 -40 -20
-40 -17 0 -20 7 -20 40 0 33 3 40 20 40 17 0 20 -7 20 -40z m159 -179 l111
-184 -12 -44 c-8 -34 -8 -50 2 -68 7 -13 10 -29 7 -37 -4 -9 -6 -9 -6 3 -1 9
-18 51 -39 95 -21 43 -67 141 -102 216 -36 79 -67 135 -73 131 -6 -3 -7 -1 -3
5 4 6 0 28 -9 48 -19 45 -20 65 -1 39 7 -11 63 -103 125 -204z m-565 174 c4
-11 -1 -15 -19 -15 -24 0 -32 10 -18 23 11 12 31 8 37 -8z m647 -12 c7 -38 3
-63 -9 -63 -8 0 -12 9 -11 23 2 12 0 28 -4 35 -5 7 -3 12 7 12 9 0 17 -3 17
-7z m-565 -30 c-1 -32 -21 -42 -29 -13 -4 16 8 33 29 40 1 0 1 -12 0 -27z
m624 -3 c0 -6 -7 -10 -15 -10 -8 0 -15 2 -15 4 0 2 -3 12 -7 21 -5 15 -3 16
15 6 12 -7 22 -16 22 -21z m-742 -6 c7 -14 8 -23 2 -19 -6 3 -10 -4 -10 -16 0
-31 -6 -21 -14 24 -8 42 5 49 22 11z m72 12 c0 -3 -4 -8 -10 -11 -5 -3 -10 -1
-10 4 0 6 5 11 10 11 6 0 10 -2 10 -4z m384 -12 c9 -3 16 -12 16 -20 0 -11
-18 -14 -75 -14 -56 0 -75 3 -75 13 0 8 3 17 7 20 8 9 106 9 127 1z m-486 -38
c-2 -19 -1 -34 2 -34 16 1 19 -4 10 -26 -6 -16 -5 -26 1 -28 7 -2 5 -16 -5
-38 l-16 -35 3 57 c4 68 -4 68 -14 0 l-6 -47 -2 55 c-2 38 -5 49 -10 35 -8
-19 -8 -19 -16 4 -4 14 -3 26 3 30 6 4 15 19 21 34 15 39 34 34 29 -7z m87 15
c-3 -5 3 -12 12 -15 13 -3 13 -4 -3 -3 -11 1 -28 -4 -38 -12 -25 -21 -31 -6
-7 18 21 21 47 29 36 12z m255 2 c-1 -18 -18 -35 -24 -24 -4 6 -2 11 4 11 6 0
8 5 5 10 -3 6 -1 10 4 10 6 0 11 -3 11 -7z m394 -189 c30 -37 31 -40 11 -47
-18 -8 -157 207 -148 230 4 10 23 -12 58 -69 29 -45 64 -97 79 -114z m-203
142 c-9 -10 6 -57 59 -192 38 -99 70 -183 70 -187 0 -10 -30 -41 -34 -36 -2 2
-25 66 -51 142 -39 112 -50 135 -61 126 -10 -8 -14 -8 -14 -1 0 6 5 14 10 17
6 3 10 11 10 16 0 6 -5 7 -12 3 -8 -5 -9 -2 -5 9 3 9 0 36 -9 59 -13 37 -13
44 1 57 11 11 15 12 15 3 0 -7 4 -11 10 -7 5 3 7 13 4 23 -5 15 -4 15 6 -1 8
-13 9 -22 1 -31z m-248 -211 c-61 -185 -83 -235 -83 -190 0 10 -7 15 -17 13
-29 -5 -18 34 44 167 31 66 70 149 86 185 54 116 41 38 -30 -175z m175 228
c-15 -2 -42 -2 -60 0 -18 2 -6 4 27 4 33 0 48 -2 33 -4z m-348 -12 c0 -5 -7
-14 -15 -21 -8 -7 -15 -9 -15 -5 0 4 -7 2 -15 -5 -20 -17 -20 4 1 24 17 17 44
22 44 7z m117 -4 c-4 -12 -37 -19 -37 -8 0 12 9 18 25 18 9 0 14 -5 12 -10z
m533 2 c0 20 29 12 41 -11 11 -21 11 -22 -5 -9 -15 12 -16 12 -9 -5 6 -17 5
-17 -10 -5 -9 7 -17 10 -17 7 0 -4 -9 -2 -20 4 -11 6 -18 15 -14 21 4 6 11 6
20 -2 10 -8 14 -8 14 0z m-370 -64 c0 -37 -4 -65 -10 -65 -6 0 -10 28 -10 65
0 37 4 65 10 65 6 0 10 -28 10 -65z m30 0 c0 -37 -4 -65 -10 -65 -6 0 -10 28
-10 65 0 37 4 65 10 65 6 0 10 -28 10 -65z m50 1 c0 -59 -2 -65 -20 -63 -18 1
-20 8 -20 64 0 56 2 63 20 63 18 0 20 -7 20 -64z m-425 44 c-10 -17 5 -32 20
-20 9 8 15 8 20 0 8 -13 -19 -24 -37 -15 -7 4 -5 0 5 -8 23 -19 22 -22 -14
-48 l-31 -22 13 22 c8 11 17 21 22 21 4 0 3 9 -3 20 -6 11 -7 20 -3 20 4 0 2
4 -6 9 -14 9 -7 31 10 31 6 0 7 -4 4 -10z m532 -57 c18 -38 52 -112 77 -166
42 -91 49 -123 25 -115 -13 4 -82 166 -83 195 -1 11 -4 19 -7 17 -11 -6 -29
45 -22 63 4 10 2 14 -4 10 -12 -8 -26 20 -17 34 3 5 0 9 -5 9 -6 0 -11 5 -11
10 0 27 19 4 47 -57z m-370 44 c-4 -12 -37 -19 -37 -8 0 12 9 18 25 18 9 0 14
-5 12 -10z m85 -15 c-7 -2 -10 -8 -6 -13 3 -5 0 -9 -6 -9 -6 0 -9 -4 -5 -9 8
-14 -37 -101 -48 -94 -5 3 -7 0 -5 -8 4 -11 -53 -153 -67 -167 -2 -2 -8 -1
-14 2 -6 4 19 67 66 161 43 85 81 151 87 148 6 -4 5 -8 -2 -11z m529 -14 c13
2 22 -5 29 -23 18 -48 10 -61 -14 -23 -12 21 -26 35 -29 32 -4 -4 -13 -1 -22
6 -8 7 -15 9 -15 5 0 -4 -7 -2 -15 5 -13 10 -13 15 -3 21 7 5 20 1 31 -9 11
-9 28 -16 38 -14z m-871 -21 c0 -5 -4 -5 -10 -2 -5 3 -10 14 -10 23 0 15 2 15
10 2 5 -8 10 -19 10 -23z m237 19 c-2 -6 -9 -11 -14 -11 -6 0 -15 -4 -20 -9
-5 -5 -3 -6 5 -2 20 12 14 -2 -30 -67 -36 -52 -43 -58 -46 -40 -4 28 70 140
93 140 8 0 14 -5 12 -11z m604 -34 c-7 -2 -19 -1 -29 3 -14 5 -14 7 -2 15 9 5
20 4 28 -3 10 -8 11 -12 3 -15z m-441 -12 c0 -5 -4 -10 -10 -10 -5 0 -10 5
-10 10 0 6 5 10 10 10 6 0 10 -4 10 -10z m463 -17 c8 -14 -12 -53 -28 -53 -23
0 -18 31 6 37 16 4 17 8 7 14 -9 6 -9 9 -1 9 6 0 14 -3 16 -7z m-474 -15 c0
-7 -4 -22 -8 -32 -6 -16 -9 -17 -16 -6 -5 8 -4 15 3 18 6 2 8 10 5 18 -3 8 0
14 6 14 6 0 11 -6 10 -12z m-272 -13 c3 -9 2 -19 -1 -23 -8 -8 -38 10 -44 26
-6 18 38 14 45 -3z m413 -10 c0 -31 -112 -34 -118 -2 -3 15 5 17 57 17 47 0
61 -3 61 -15z m128 -272 c-2 -7 -8 -9 -15 -5 -17 11 -65 181 -57 205 4 14 3
17 -7 12 -9 -6 -11 -2 -7 13 3 12 1 23 -5 25 -7 2 -7 9 -2 18 7 10 22 -26 52
-121 24 -74 42 -141 41 -147z m242 251 c0 -8 -4 -12 -10 -9 -5 3 -10 13 -10
21 0 8 5 12 10 9 6 -3 10 -13 10 -21z m-334 -81 c-3 -7 1 -25 9 -40 19 -36 19
-67 -1 -109 -20 -42 -59 -64 -115 -64 -33 0 -47 6 -75 34 -30 30 -34 40 -34
86 0 46 4 56 34 86 28 28 42 34 75 34 23 0 56 -7 74 -15 l32 -16 -22 20 c-26
22 -28 33 -10 61 11 19 13 18 25 -22 7 -24 10 -48 8 -55z m-156 47 c0 -8 -9
-21 -21 -28 -19 -12 -20 -12 -14 10 4 13 9 31 12 42 4 15 7 16 14 5 5 -8 9
-21 9 -29z m-310 20 c0 -3 -7 -15 -16 -26 -14 -18 -15 -18 -9 6 5 19 4 22 -4
10 -6 -8 -11 -24 -12 -35 0 -11 -3 -14 -6 -7 -10 25 6 61 27 59 11 -1 20 -4
20 -7z m270 -11 c0 -6 -4 -7 -10 -4 -5 3 -10 11 -10 16 0 6 5 7 10 4 6 -3 10
-11 10 -16z m512 3 c9 -9 9 -22 2 -51 -10 -36 -9 -40 9 -45 18 -4 19 -7 6 -22
-8 -10 -14 -27 -14 -38 0 -15 -7 -21 -22 -22 -12 -1 -20 3 -17 8 3 4 9 6 14 3
5 -3 12 0 16 6 4 8 3 9 -4 5 -7 -4 -12 -1 -12 6 0 7 -9 0 -20 -17 -18 -27 -20
-28 -20 -9 0 24 24 49 39 40 5 -4 12 -2 16 4 3 5 2 10 -2 10 -5 0 -10 18 -12
41 -1 26 2 38 9 34 12 -7 12 12 0 40 -8 19 -9 19 -9 1 -1 -15 -4 -16 -16 -6
-8 7 -15 16 -15 21 0 12 38 5 52 -9z m-372 -2 c0 -5 -18 -10 -40 -10 -22 0
-40 5 -40 10 0 6 18 10 40 10 22 0 40 -4 40 -10z m339 -69 c-1 -27 -3 -30 -6
-11 -8 42 -19 42 -15 0 3 -25 0 -40 -7 -40 -12 0 -13 3 -16 70 -3 58 4 68 27
41 11 -14 17 -37 17 -60z m-729 44 c0 -16 -6 -25 -15 -25 -18 0 -20 21 -3 38
17 17 18 16 18 -13z m210 -104 c-17 -55 -35 -101 -40 -101 -14 0 -13 5 22 118
19 61 35 99 41 93 5 -5 -4 -49 -23 -110z m-235 69 c3 -5 12 -7 20 -3 10 3 15
-2 15 -16 0 -24 -18 -28 -27 -5 -3 8 -12 13 -19 10 -8 -3 -14 1 -14 9 0 17 16
20 25 5z m-36 -105 l26 -30 -32 29 c-18 17 -33 26 -33 21 0 -24 -25 20 -26 46
l-2 31 20 -34 c11 -18 32 -46 47 -63z m70 -2 c-11 -35 -12 -36 -26 -17 -27 35
-33 53 -24 59 6 3 17 -7 25 -22 l15 -28 1 26 c0 14 3 29 7 33 14 13 15 -13 2
-51z m678 42 c9 -25 -4 -29 -17 -6 -7 15 -7 21 0 21 6 0 13 -7 17 -15z m-757
-60 c13 -14 19 -25 14 -25 -14 0 -54 30 -54 41 0 16 16 10 40 -16z m97 3 c-3
-8 -6 -5 -6 6 -1 11 2 17 5 13 3 -3 4 -12 1 -19z m39 13 c-3 -5 1 -12 10 -15
20 -8 9 -26 -16 -26 -15 0 -19 6 -18 25 1 14 8 25 16 25 7 0 11 -4 8 -9z m180
-72 c20 -22 3 -32 -28 -16 -23 12 -25 28 -11 67 4 11 7 9 15 -10 5 -13 16 -32
24 -41z m405 54 c0 -5 2 -18 5 -31 2 -13 -1 -31 -7 -40 -8 -14 -9 -12 -6 11 3
21 0 27 -14 27 -12 0 -19 7 -19 20 0 13 7 20 20 20 11 0 20 -3 21 -7z m-157
-29 c5 -19 1 -30 -16 -44 -43 -36 -58 -17 -26 34 28 42 34 44 42 10z m90 -29
c-15 -22 -15 -28 -4 -35 12 -7 11 -13 -5 -30 -18 -20 -20 -20 -26 -3 -4 10 -2
26 3 36 6 11 5 17 -2 17 -7 0 -7 6 0 21 7 12 18 18 26 15 9 -3 14 1 15 12 0 9
3 12 5 5 3 -6 -3 -24 -12 -38z m-424 -10 c12 0 16 -7 24 -40 l8 -30 -26 24
c-14 14 -26 19 -26 13 0 -13 40 -38 54 -34 5 2 4 -3 -2 -11 -15 -17 -6 -27 25
-27 13 0 23 -5 23 -11 0 -8 -14 -10 -41 -6 -47 6 -59 14 -40 26 7 5 10 14 6
21 -5 8 -12 5 -22 -10 -10 -13 -21 -19 -33 -15 -10 3 -21 1 -25 -5 -8 -13 36
-30 78 -30 18 0 41 -7 51 -15 10 -8 23 -12 29 -8 5 3 6 -3 3 -15 -6 -18 -2
-22 31 -29 21 -4 62 -8 91 -8 47 0 57 4 76 28 14 18 36 30 59 34 40 6 40 19
-1 34 l-25 10 29 31 c16 17 24 28 17 24 -8 -4 -11 2 -9 19 4 35 20 32 22 -5 1
-22 -6 -36 -24 -50 -29 -23 -17 -27 15 -5 12 9 24 11 27 6 4 -5 -3 -13 -15
-16 -14 -5 -18 -10 -11 -17 6 -6 20 -5 38 6 16 8 23 15 17 16 -18 0 -16 20 2
20 8 0 15 -5 15 -11 0 -6 6 -9 13 -6 7 3 24 -1 37 -8 l23 -13 -28 -14 c-22
-12 -24 -16 -12 -21 9 -3 23 1 32 9 8 9 15 13 15 9 0 -17 54 34 71 67 11 22
23 38 26 35 3 -3 -2 -20 -11 -38 -18 -37 -20 -42 -7 -35 5 4 7 -2 4 -13 -7
-26 24 -35 54 -15 64 41 21 -38 -45 -84 -45 -31 -46 -31 -66 -13 -12 10 -34
23 -51 28 l-30 10 51 26 c27 14 56 32 63 41 7 9 -19 -3 -58 -25 -39 -23 -69
-45 -66 -49 3 -4 17 -11 32 -15 30 -7 53 -23 53 -35 0 -10 -70 -26 -180 -41
-100 -14 -386 -5 -470 14 -71 16 -81 43 -20 53 48 8 60 22 35 41 -11 7 -14 13
-8 13 14 0 48 -39 40 -46 -3 -4 -21 -10 -39 -14 l-33 -8 33 -1 c17 -1 32 -6
32 -12 0 -6 -8 -8 -17 -5 -52 15 -78 18 -68 8 14 -15 119 -30 275 -37 125 -6
331 10 385 31 22 9 9 21 -30 28 -39 8 -43 20 -18 48 16 18 16 18 -2 12 -13 -5
-16 -4 -11 4 4 8 1 12 -10 12 -10 0 -14 -3 -11 -7 4 -3 2 -12 -4 -20 -9 -9 -8
-13 0 -13 6 0 11 -15 11 -34 0 -34 0 -35 -57 -43 -61 -8 -375 -6 -405 3 -13 4
-18 16 -18 45 0 37 2 40 23 33 12 -4 25 -11 28 -16 7 -10 54 5 64 21 4 7 -3 7
-19 -1 -29 -13 -49 -3 -26 13 11 8 4 9 -27 6 -34 -4 -41 -2 -36 10 4 11 2 14
-8 11 -17 -6 -69 18 -69 32 0 10 14 14 38 11 6 -1 12 3 12 10 0 7 9 9 27 4 21
-5 24 -4 15 7 -6 7 -14 38 -17 68 l-6 55 21 -25 c12 -14 26 -25 30 -25z m-62
-10 c-1 -25 -4 -45 -5 -45 -3 0 -33 58 -33 65 0 13 19 3 23 -12 3 -11 5 -7 6
10 0 15 3 27 6 27 2 0 4 -20 3 -45z m523 10 c7 14 8 8 4 -18 -6 -36 -5 -37 19
-31 20 5 26 2 26 -10 0 -10 12 -19 31 -23 29 -5 30 -7 14 -19 -14 -10 -23 -10
-51 3 -18 9 -31 20 -28 25 5 8 -9 12 -33 9 -7 -1 -13 2 -13 7 0 4 6 14 13 21
9 10 9 15 0 18 -7 2 -9 12 -5 21 6 15 7 15 11 -3 l4 -20 8 20z m-397 -37 c13
-29 14 -30 21 -9 5 18 13 21 44 19 27 -2 37 -8 38 -20 1 -11 -5 -18 -17 -18
-10 0 -20 -7 -23 -15 -4 -10 10 -7 48 12 30 15 50 30 45 33 -5 3 6 6 25 7 58
2 41 -21 -50 -66 -78 -40 -116 -46 -98 -18 4 7 6 20 5 30 -2 9 2 17 8 17 6 0
8 5 5 10 -3 6 -11 10 -16 10 -6 0 -8 -4 -5 -8 2 -4 1 -14 -3 -21 -12 -19 -66
30 -58 52 9 24 16 21 31 -15z m-224 2 c0 -12 -10 -25 -22 -30 -17 -7 -11 -8
23 -4 58 7 69 -7 24 -32 -33 -17 -35 -17 -54 0 -12 11 -18 27 -16 44 2 15 4
30 4 35 1 4 10 7 21 7 13 0 20 -7 20 -20z m35 10 c3 -5 2 -10 -4 -10 -5 0 -13
5 -16 10 -3 6 -2 10 4 10 5 0 13 -4 16 -10z m465 -20 c7 -14 9 -22 5 -18 -5 4
-23 -2 -41 -13 -19 -11 -38 -18 -44 -14 -15 9 -1 27 16 21 8 -3 14 -1 14 5 0
6 5 7 10 4 6 -3 10 2 10 13 0 10 3 22 7 25 8 8 7 9 23 -23z m-140 6 c0 -3 -4
-8 -10 -11 -5 -3 -10 -1 -10 4 0 6 5 11 10 11 6 0 10 -2 10 -4z m-290 -16 c13
-9 13 -10 0 -9 -8 0 -24 4 -35 9 l-20 9 20 0 c11 0 27 -4 35 -9z m345 -42 c24
-11 35 -38 15 -38 -18 0 -60 32 -54 41 7 11 8 11 39 -3z m-386 -78 c35 -14 32
-30 -5 -30 -13 0 -33 -9 -44 -20 -19 -19 -20 -19 -70 21 -29 23 -50 48 -50 59
0 17 2 18 27 5 32 -17 46 -11 38 17 -6 17 -1 15 34 -10 22 -16 54 -35 70 -42z
m341 14 c0 -32 -4 -44 -15 -44 -11 0 -15 11 -15 43 0 24 3 47 6 50 14 14 24
-6 24 -49z m-340 25 c-14 11 -20 21 -13 21 12 0 83 -39 83 -45 0 -10 -69 3
-97 18 -48 26 -40 31 10 7 41 -21 42 -21 17 -1z m298 -21 c-4 -41 -28 -50 -28
-10 0 16 3 32 7 35 15 16 24 5 21 -25z m72 -2 c0 -19 -4 -38 -10 -41 -6 -4
-10 10 -10 34 0 23 5 41 10 41 6 0 10 -15 10 -34z m-110 -6 c0 -11 -7 -20 -15
-20 -8 0 -15 9 -15 20 0 11 7 20 15 20 8 0 15 -9 15 -20z m148 -2 c-5 -32 -28
-35 -28 -4 0 17 5 26 16 26 10 0 14 -7 12 -22z m-504 -72 c21 -14 32 -26 23
-26 -18 0 -117 87 -117 103 0 6 12 -3 28 -20 15 -18 45 -43 66 -57z m725 -2
c2 -2 -10 -4 -27 -4 -18 0 -32 5 -32 10 0 9 47 4 59 -6z m-334 -58 c177 0 246
4 300 16 38 9 70 16 71 15 1 -1 5 -20 8 -43 6 -36 5 -41 -17 -51 -77 -35 -533
-43 -652 -11 l-50 13 -3 47 -3 46 58 -16 c46 -13 105 -16 288 -16z"/>
<path d="M399 1083 c-13 -16 -12 -17 4 -4 9 7 17 15 17 17 0 8 -8 3 -21 -13z"/>
<path d="M752 899 c12 -22 28 -45 36 -51 7 -7 -1 12 -19 40 -38 62 -50 69 -17
11z"/>
<path d="M514 640 c-32 -13 -64 -59 -64 -91 0 -17 11 -41 29 -61 40 -45 92
-45 132 0 46 51 34 118 -26 147 -37 17 -41 17 -71 5z m96 -38 c60 -76 -32
-172 -114 -119 -50 33 -41 117 15 141 40 17 75 10 99 -22z"/>
<path d="M512 588 c-7 -7 -12 -24 -12 -38 0 -53 57 -69 86 -25 15 23 15 27 0
50 -18 27 -54 33 -74 13z m56 -10 c17 -17 15 -43 -4 -59 -31 -26 -70 25 -44
56 15 18 32 19 48 3z"/>
<path d="M708 283 c12 -2 22 -10 22 -18 0 -14 -35 -10 -57 8 -9 6 -13 6 -13
-2 0 -6 12 -14 28 -17 15 -4 33 -11 40 -17 8 -6 12 -5 13 4 0 8 2 22 4 32 3
13 -3 17 -28 16 -24 -1 -26 -3 -9 -6z"/>
<path d="M625 1302 c11 -24 13 -37 5 -51 -15 -29 -12 -39 5 -17 20 27 19 49
-5 77 l-21 24 16 -33z"/>
<path d="M734 1111 c0 -27 3 -47 5 -45 2 2 10 -1 16 -6 7 -6 21 -7 30 -3 16 6
15 8 -6 16 -13 6 -28 9 -34 8 -5 -1 -3 4 6 11 14 12 14 16 -1 41 l-17 28 1
-50z"/>
<path d="M780 1148 c0 -6 6 -8 14 -5 7 3 19 1 25 -4 8 -6 8 -5 1 3 -13 15 -40
19 -40 6z"/>
<path d="M846 1111 c-3 -5 1 -11 9 -14 9 -4 12 -1 8 9 -6 16 -10 17 -17 5z"/>
<path d="M907 1063 c-14 -14 -6 -22 23 -21 24 1 28 4 19 15 -12 14 -32 17 -42
6z"/>
<path d="M971 982 c-6 -12 -11 -27 -10 -34 0 -7 5 0 11 16 l11 29 13 -24 c7
-13 13 -32 14 -41 0 -11 5 -15 14 -12 11 4 9 13 -10 42 -33 48 -31 47 -43 24z"/>
<path d="M1030 874 c0 -8 5 -12 10 -9 13 8 13 -30 -1 -58 -10 -21 -10 -21 5
-3 20 25 21 72 1 80 -9 3 -15 0 -15 -10z"/>
<path d="M1041 766 c-9 -11 -7 -15 10 -19 17 -4 20 -11 16 -28 -7 -28 8 -12
17 18 9 28 -25 51 -43 29z"/>
<path d="M1052 404 c-12 -8 -22 -20 -22 -26 0 -6 8 -4 18 5 10 10 22 17 25 17
10 0 8 -60 -3 -99 -7 -27 -7 -32 2 -23 14 14 24 142 11 142 -5 0 -19 -7 -31
-16z"/>
<path d="M1001 364 c-14 -32 -6 -44 15 -22 11 11 13 21 7 32 -8 15 -11 13 -22
-10z"/>
<path d="M1009 226 c-25 -17 -55 -37 -65 -44 -10 -7 5 -1 33 14 29 15 60 35
69 45 22 25 18 23 -37 -15z"/>
<path d="M218 43 c7 -3 16 -2 19 1 4 3 -2 6 -13 5 -11 0 -14 -3 -6 -6z"/>
<path d="M273 33 c9 -2 23 -2 30 0 6 3 -1 5 -18 5 -16 0 -22 -2 -12 -5z"/>
<path d="M803 33 c9 -2 23 -2 30 0 6 3 -1 5 -18 5 -16 0 -22 -2 -12 -5z"/>
<path d="M363 23 c15 -2 37 -2 50 0 12 2 0 4 -28 4 -27 0 -38 -2 -22 -4z"/>
<path d="M713 23 c15 -2 37 -2 50 0 12 2 0 4 -28 4 -27 0 -38 -2 -22 -4z"/>
<path d="M553 13 c20 -2 54 -2 75 0 20 2 3 4 -38 4 -41 0 -58 -2 -37 -4z"/>
</g>
</svg>
