<?xml version="1.0" standalone="no"?>
<!DOCTYPE svg PUBLIC "-//W3C//DTD SVG 20010904//EN"
 "http://www.w3.org/TR/2001/REC-SVG-20010904/DTD/svg10.dtd">
<svg version="1.0" xmlns="http://www.w3.org/2000/svg"
 width="852.000000pt" height="246.000000pt" viewBox="0 0 852.000000 246.000000"
 preserveAspectRatio="xMidYMid meet">

<g transform="translate(0.000000,246.000000) scale(0.100000,-0.100000)"
fill="#000000" stroke="none">
<path d="M1139 2324 c-17 -21 0 -49 31 -49 31 0 48 28 31 49 -8 9 -21 16 -31
16 -10 0 -23 -7 -31 -16z"/>
<path d="M1024 2316 c-24 -18 -11 -48 18 -44 14 2 24 11 26 24 4 26 -20 37
-44 20z"/>
<path d="M1270 2315 c-20 -24 0 -50 36 -50 26 0 29 4 29 30 0 25 -4 31 -26 33
-15 2 -31 -4 -39 -13z"/>
<path d="M1400 2285 c-16 -19 -4 -52 21 -58 28 -8 47 1 54 24 8 26 -11 49 -40
49 -12 0 -28 -7 -35 -15z"/>
<path d="M895 2280 c-4 -7 -3 -16 3 -22 14 -14 45 -2 40 15 -6 16 -34 21 -43
7z"/>
<path d="M2245 2260 c-4 -7 -3 -16 3 -22 14 -14 45 -2 40 15 -6 16 -34 21 -43
7z"/>
<path d="M1526 2244 c-23 -22 -20 -41 10 -61 28 -18 48 -12 68 20 8 12 5 21
-8 36 -23 25 -49 27 -70 5z"/>
<path d="M1154 2215 c-4 -9 -2 -21 3 -26 14 -14 45 1 41 20 -4 22 -37 26 -44
6z"/>
<path d="M1052 2206 c1 -10 8 -17 13 -17 15 1 12 24 -3 29 -9 3 -13 -2 -10
-12z"/>
<path d="M1254 2205 c-4 -9 -2 -21 4 -27 16 -16 47 -5 47 17 0 26 -42 34 -51
10z"/>
<path d="M1360 2185 c-7 -8 -10 -22 -6 -30 7 -20 55 -20 62 0 7 17 -12 45 -31
45 -7 0 -18 -7 -25 -15z"/>
<path d="M1636 2177 c-21 -16 -18 -55 5 -70 23 -14 67 0 74 24 4 13 0 27 -11
40 -20 22 -43 24 -68 6z"/>
<path d="M2310 2165 c-11 -13 -11 -19 3 -32 21 -21 49 -9 45 19 -4 28 -30 35
-48 13z"/>
<path d="M1454 2135 c-10 -25 22 -53 44 -39 9 6 17 20 17 30 0 25 -52 33 -61
9z"/>
<path d="M1095 2130 c-4 -6 -3 -16 3 -22 6 -6 12 -6 17 2 4 6 3 16 -3 22 -6 6
-12 6 -17 -2z"/>
<path d="M1193 2133 c-17 -6 -16 -30 1 -36 21 -8 40 17 24 30 -7 6 -19 8 -25
6z"/>
<path d="M1277 2113 c-12 -11 -7 -33 8 -39 20 -8 45 13 38 32 -5 14 -34 19
-46 7z"/>
<path d="M2224 2109 c-10 -17 13 -36 27 -22 12 12 4 33 -11 33 -5 0 -12 -5
-16 -11z"/>
<path d="M1547 2093 c-13 -12 -7 -51 9 -57 28 -11 43 -7 54 15 9 15 8 24 -1
35 -12 14 -51 19 -62 7z"/>
<path d="M1718 2075 c-10 -22 -9 -29 10 -47 18 -18 26 -20 49 -12 53 18 38 84
-18 84 -22 0 -32 -7 -41 -25z"/>
<path d="M1373 2083 c-17 -6 -16 -28 1 -42 18 -15 46 -3 46 19 0 14 -23 34
-33 29 -1 0 -8 -3 -14 -6z"/>
<path d="M8128 2079 c-16 -9 -18 -27 -18 -143 0 -154 2 -159 77 -154 l48 3 3
139 c2 93 -1 143 -9 152 -13 16 -76 18 -101 3z"/>
<path d="M8371 2076 c-8 -9 -11 -59 -9 -152 l3 -139 39 -3 c22 -2 50 -1 63 2
23 6 23 8 23 146 0 127 -2 140 -19 150 -28 14 -87 12 -100 -4z"/>
<path d="M2356 2065 c-22 -22 -4 -55 30 -55 28 0 42 25 27 49 -14 22 -38 25
-57 6z"/>
<path d="M2156 2053 c-11 -11 -6 -23 9 -23 8 0 15 4 15 9 0 13 -16 22 -24 14z"/>
<path d="M1452 2028 c-16 -19 1 -40 29 -36 16 2 24 10 24 23 0 24 -36 33 -53
13z"/>
<path d="M1619 2014 c-19 -23 1 -49 37 -49 20 0 30 6 32 18 8 40 -43 63 -69
31z"/>
<path d="M2255 2020 c-9 -15 4 -30 26 -30 12 0 19 7 19 20 0 21 -33 29 -45 10z"/>
<path d="M1812 1994 c-29 -20 -28 -50 3 -70 23 -15 27 -15 50 0 31 20 32 50 3
70 -12 9 -25 16 -28 16 -3 0 -16 -7 -28 -16z"/>
<path d="M6685 2003 c-29 -7 -45 -32 -45 -70 0 -32 -1 -32 -27 -21 -16 6 -113
13 -218 15 -223 5 -238 1 -243 -63 -2 -26 2 -45 11 -53 11 -8 95 -11 313 -9
l299 3 3 86 c2 61 -1 89 -10 97 -17 14 -58 21 -83 15z"/>
<path d="M7535 2003 c-29 -7 -45 -32 -45 -70 0 -32 -1 -32 -27 -21 -16 6 -113
13 -218 15 -223 5 -238 1 -243 -63 -2 -26 2 -45 11 -53 11 -8 95 -11 313 -9
l299 3 3 86 c2 61 -1 89 -10 97 -17 14 -58 21 -83 15z"/>
<path d="M1537 1979 c-23 -14 -21 -46 3 -54 23 -7 50 10 50 31 0 20 -32 34
-53 23z"/>
<path d="M2170 1965 c-10 -12 -9 -16 4 -21 9 -3 23 -3 32 0 13 5 14 9 4 21 -7
8 -16 15 -20 15 -4 0 -13 -7 -20 -15z"/>
<path d="M2381 1946 c-7 -8 -10 -24 -6 -36 8 -25 62 -28 72 -4 14 38 -41 71
-66 40z"/>
<path d="M1686 1934 c-9 -8 -16 -19 -16 -24 0 -13 30 -40 45 -40 15 0 45 27
45 40 0 13 -30 40 -45 40 -7 0 -21 -7 -29 -16z"/>
<path d="M1056 1924 c-32 -32 -13 -74 34 -74 31 0 50 17 50 45 0 43 -53 61
-84 29z"/>
<path d="M2274 1925 c-4 -9 -2 -21 4 -27 16 -16 47 -5 47 17 0 26 -42 34 -51
10z"/>
<path d="M920 1895 c-19 -23 -4 -64 26 -71 44 -11 83 43 52 74 -17 17 -63 15
-78 -3z"/>
<path d="M1584 1895 c-10 -25 4 -45 30 -45 25 0 44 30 31 50 -10 15 -55 12
-61 -5z"/>
<path d="M2180 1884 c-11 -12 -10 -18 3 -32 16 -15 18 -15 34 0 13 14 14 20 3
32 -7 9 -16 16 -20 16 -4 0 -13 -7 -20 -16z"/>
<path d="M808 1859 c-36 -21 -16 -79 27 -79 44 0 63 60 26 80 -24 12 -31 12
-53 -1z"/>
<path d="M1738 1849 c-22 -12 -23 -42 -3 -59 32 -26 81 13 59 48 -14 21 -33
25 -56 11z"/>
<path d="M1634 1823 c-8 -9 -13 -22 -10 -30 3 -8 6 -17 6 -19 0 -10 49 -2 59
10 26 32 -25 68 -55 39z"/>
<path d="M2274 1825 c-4 -9 -2 -21 4 -27 16 -16 47 -5 47 17 0 26 -42 34 -51
10z"/>
<path d="M2392 1828 c-32 -32 2 -79 43 -60 39 18 27 72 -15 72 -9 0 -21 -5
-28 -12z m18 -28 c0 -11 -4 -20 -10 -20 -5 0 -10 9 -10 20 0 11 5 20 10 20 6
0 10 -9 10 -20z"/>
<path d="M1068 1799 c-42 -24 -1 -82 42 -59 22 12 26 40 8 58 -14 14 -27 15
-50 1z"/>
<path d="M1170 1795 c-22 -26 -8 -50 30 -50 29 0 36 4 38 24 6 38 -43 57 -68
26z"/>
<path d="M2170 1794 c-11 -12 -11 -18 2 -30 16 -16 48 -9 48 10 0 13 -20 36
-31 36 -4 0 -12 -7 -19 -16z"/>
<path d="M678 1775 c-14 -32 3 -55 42 -55 39 0 56 23 42 55 -9 19 -19 25 -42
25 -23 0 -33 -6 -42 -25z"/>
<path d="M956 1774 c-9 -8 -16 -19 -16 -23 0 -16 29 -32 52 -29 29 4 36 37 12
55 -23 17 -29 16 -48 -3z"/>
<path d="M852 1738 c-29 -29 10 -68 48 -48 32 17 18 60 -20 60 -9 0 -21 -5
-28 -12z"/>
<path d="M1661 1731 c-13 -24 8 -55 34 -50 28 6 42 34 26 53 -18 22 -48 20
-60 -3z"/>
<path d="M2267 1739 c-37 -21 -2 -68 35 -48 10 5 18 16 18 24 0 21 -32 35 -53
24z"/>
<path d="M8258 1739 c-10 -5 -18 -18 -18 -28 0 -14 -10 -20 -40 -24 -89 -12
-93 -55 -15 -131 l55 -53 0 -246 c0 -233 -1 -247 -19 -257 -11 -5 -30 -10 -43
-10 -51 0 -66 -58 -23 -86 20 -13 44 -16 124 -12 62 2 105 9 115 17 14 12 16
48 16 300 0 318 1 315 -67 350 l-36 18 37 6 c57 9 66 22 66 88 0 47 -4 60 -19
69 -25 13 -111 13 -133 -1z"/>
<path d="M603 1709 c-15 -5 -23 -17 -23 -33 0 -39 61 -51 80 -16 18 34 -17 64
-57 49z"/>
<path d="M2147 1713 c-13 -12 -7 -41 10 -47 9 -4 23 0 31 8 13 12 13 18 2 30
-13 17 -32 21 -43 9z"/>
<path d="M2372 1708 c-28 -28 -3 -72 39 -66 30 4 47 33 33 56 -14 21 -55 27
-72 10z"/>
<path d="M1056 1695 c-29 -30 17 -71 49 -45 19 16 19 25 -1 44 -19 20 -29 20
-48 1z"/>
<path d="M1150 1695 c-10 -12 -10 -18 0 -30 25 -30 78 -7 64 29 -8 20 -47 21
-64 1z"/>
<path d="M1249 1694 c-17 -21 0 -49 31 -49 31 0 48 28 31 49 -8 9 -21 16 -31
16 -10 0 -23 -7 -31 -16z"/>
<path d="M754 1675 c-10 -25 22 -53 44 -39 9 6 17 20 17 30 0 25 -52 33 -61 9z"/>
<path d="M2850 1677 c-18 -9 -25 -21 -25 -42 0 -49 25 -55 257 -55 114 0 218
4 232 10 21 8 26 16 26 45 0 29 -5 37 -26 45 -39 15 -433 13 -464 -3z"/>
<path d="M3740 1679 c-13 -6 -28 -15 -32 -22 -4 -7 -8 -153 -8 -324 l0 -313
-25 -16 c-19 -13 -44 -15 -116 -13 -129 5 -129 5 -129 211 0 183 -7 205 -73
240 -39 22 -54 23 -232 23 -178 0 -193 -1 -232 -23 -70 -37 -73 -51 -73 -300
0 -191 2 -221 16 -233 11 -9 52 -15 118 -17 90 -4 104 -2 126 16 21 17 23 24
15 48 -9 25 -17 30 -55 34 l-45 5 -3 167 c-3 212 -5 208 131 208 141 0 137 5
137 -193 0 -195 8 -218 85 -257 47 -24 59 -25 220 -25 195 0 248 13 287 68 23
31 23 38 26 346 2 173 1 325 -2 337 -4 16 -18 26 -44 33 -44 13 -59 13 -92 0z"/>
<path d="M3940 1677 c-18 -9 -25 -21 -25 -42 0 -37 31 -55 97 -55 79 0 78 4
78 -351 0 -350 -4 -334 85 -334 89 0 85 -18 85 354 0 367 -1 370 -75 405 -67
32 -202 45 -245 23z"/>
<path d="M4638 1680 c-74 -12 -114 -33 -138 -73 -19 -30 -20 -52 -20 -358 0
-290 2 -328 16 -340 11 -9 52 -15 118 -17 90 -4 104 -2 126 16 21 17 23 24 15
48 -9 25 -17 30 -55 34 l-45 5 -3 274 c-2 244 -1 276 14 293 15 15 33 18 120
18 80 0 106 -3 118 -16 14 -13 16 -53 16 -282 0 -312 2 -320 85 -362 47 -24
59 -25 220 -25 195 0 248 13 287 68 23 31 23 38 26 346 2 173 1 325 -2 337
-11 44 -123 55 -161 17 -13 -12 -15 -64 -15 -328 l0 -315 -25 -16 c-19 -13
-44 -15 -116 -13 -136 6 -129 -11 -129 324 l0 273 -25 30 c-41 49 -94 63 -240
67 -71 2 -156 0 -187 -5z"/>
<path d="M5610 1677 c-18 -9 -25 -21 -25 -42 0 -37 31 -55 97 -55 79 0 78 4
78 -351 0 -350 -4 -334 85 -334 89 0 85 -18 85 354 0 367 -1 370 -75 405 -67
32 -202 45 -245 23z"/>
<path d="M6195 1683 c-45 -12 -45 -9 -45 -352 0 -375 0 -374 88 -414 43 -20
63 -22 227 -22 164 0 184 2 227 22 88 40 88 39 88 414 0 372 4 353 -85 353
-84 0 -85 -2 -85 -185 l0 -159 -109 0 c-119 0 -141 -9 -141 -55 0 -36 28 -45
144 -45 l106 0 0 -103 c0 -139 -4 -142 -145 -142 -157 0 -145 -28 -145 350 0
244 -3 315 -13 323 -16 13 -84 23 -112 15z"/>
<path d="M7030 1677 c-18 -9 -25 -21 -25 -42 0 -51 21 -55 310 -55 289 0 310
4 310 55 0 51 -21 55 -310 55 -190 0 -267 -4 -285 -13z"/>
<path d="M7895 1683 c-46 -12 -45 -7 -45 -393 0 -322 2 -369 16 -381 21 -17
174 -25 203 -10 17 9 21 20 19 43 -3 30 -13 40 -50 52 -17 5 -18 30 -18 334 0
258 -3 332 -13 340 -16 13 -84 23 -112 15z"/>
<path d="M957 1673 c-14 -14 -6 -42 14 -48 30 -10 57 18 39 39 -13 16 -42 21
-53 9z"/>
<path d="M2228 1640 l-23 -19 21 -21 c18 -18 25 -20 43 -11 26 14 27 47 2 61
-15 7 -25 5 -43 -10z"/>
<path d="M870 1625 c-10 -12 -10 -18 0 -30 7 -8 18 -15 25 -15 7 0 18 7 25 15
10 12 10 18 0 30 -7 8 -18 15 -25 15 -7 0 -18 -7 -25 -15z"/>
<path d="M2102 1628 c-17 -17 -15 -35 5 -47 23 -12 53 4 53 28 0 28 -37 40
-58 19z"/>
<path d="M682 1621 c-23 -14 -10 -46 18 -46 16 0 26 6 28 19 3 16 -12 36 -28
36 -3 0 -11 -4 -18 -9z"/>
<path d="M512 1608 c-32 -32 8 -80 48 -58 25 14 26 46 1 60 -25 13 -34 13 -49
-2z"/>
<path d="M1405 1600 c-92 -22 -148 -69 -148 -122 0 -24 8 -39 37 -64 38 -33
130 -65 182 -63 l29 1 -32 9 c-39 11 -80 59 -88 103 -11 58 34 121 97 136 l33
8 -40 0 c-22 0 -53 -3 -70 -8z"/>
<path d="M1587 1599 c57 -16 102 -90 89 -143 -9 -37 -54 -85 -89 -96 -27 -8
-23 -9 23 -4 62 6 134 34 167 66 34 32 31 86 -6 122 -31 30 -135 67 -184 65
l-32 -1 32 -9z"/>
<path d="M2324 1589 c-19 -22 -13 -43 18 -63 26 -16 68 8 68 38 0 44 -54 60
-86 25z"/>
<path d="M790 1575 c-18 -21 -4 -47 22 -43 29 4 35 34 10 47 -15 8 -23 7 -32
-4z"/>
<path d="M2178 1559 c-38 -21 -5 -79 36 -63 25 10 31 46 10 61 -21 15 -24 16
-46 2z"/>
<path d="M2034 1545 c-8 -19 13 -45 36 -45 23 0 42 24 34 44 -8 21 -62 22 -70
1z"/>
<path d="M604 1535 c-4 -8 -3 -22 0 -31 8 -21 50 -14 54 10 6 31 -43 50 -54
21z"/>
<path d="M714 1505 c-8 -19 3 -35 26 -35 19 0 30 17 23 38 -6 17 -42 15 -49
-3z"/>
<path d="M446 1495 c-19 -20 -20 -27 -4 -43 32 -32 84 0 61 37 -14 22 -38 25
-57 6z"/>
<path d="M1972 1488 c-18 -18 -15 -36 7 -48 23 -12 47 -5 55 17 13 33 -36 57
-62 31z"/>
<path d="M2258 1475 c-10 -22 -9 -29 10 -47 18 -18 26 -20 49 -12 53 18 38 84
-18 84 -22 0 -32 -7 -41 -25z"/>
<path d="M2100 1475 c-22 -26 -8 -50 30 -50 25 0 36 5 38 18 5 23 -15 47 -38
47 -10 0 -23 -7 -30 -15z"/>
<path d="M7120 1461 c-52 -17 -90 -42 -105 -71 -12 -23 -15 -72 -15 -248 0
-253 -2 -247 87 -247 l54 0 105 107 c57 58 104 113 104 121 0 17 -58 57 -82
57 -8 0 -29 -16 -48 -35 -19 -19 -38 -35 -42 -35 -4 0 -8 50 -8 110 0 148 2
150 145 150 152 0 145 12 145 -244 0 -234 -1 -231 85 -231 87 0 85 -5 85 247
0 249 -3 263 -75 301 -36 20 -57 22 -225 24 -102 1 -196 -2 -210 -6z"/>
<path d="M554 1445 c-4 -9 -2 -21 4 -27 15 -15 44 -1 40 19 -4 23 -36 29 -44
8z"/>
<path d="M1889 1434 c-9 -11 -10 -20 -2 -32 14 -22 53 -22 67 1 9 15 7 21 -8
33 -25 18 -40 18 -57 -2z"/>
<path d="M660 1426 c0 -8 5 -18 10 -21 13 -8 42 14 34 26 -9 15 -44 10 -44 -5z"/>
<path d="M2015 1409 c-4 -5 -4 -21 -1 -35 5 -20 12 -25 33 -22 34 4 51 31 34
52 -15 18 -56 21 -66 5z"/>
<path d="M2192 1394 c-29 -20 -28 -50 3 -70 55 -36 106 33 53 70 -12 9 -25 16
-28 16 -3 0 -16 -7 -28 -16z"/>
<path d="M410 1375 c-11 -13 -11 -18 2 -31 20 -20 50 -7 46 20 -4 26 -30 32
-48 11z"/>
<path d="M527 1354 c-13 -13 -7 -24 14 -24 11 0 19 5 17 12 -5 14 -22 21 -31
12z"/>
<path d="M625 1349 c-10 -15 1 -23 20 -15 9 3 13 10 10 16 -8 13 -22 13 -30
-1z"/>
<path d="M1198 1329 c-22 -12 -23 -42 -4 -59 35 -28 93 11 70 48 -13 20 -42
26 -66 11z"/>
<path d="M1059 1264 c-18 -22 1 -49 36 -49 35 0 54 27 36 49 -8 9 -24 16 -36
16 -12 0 -28 -7 -36 -16z"/>
<path d="M1621 1261 c-8 -15 -7 -23 5 -35 29 -29 68 -13 62 25 -4 32 -52 39
-67 10z"/>
<path d="M401 1260 c-14 -8 -8 -40 7 -40 5 0 15 6 21 14 15 17 -8 39 -28 26z"/>
<path d="M1159 1224 c-9 -11 -10 -20 -2 -32 15 -24 44 -27 59 -7 28 38 -27 75
-57 39z"/>
<path d="M902 1208 c-15 -15 -15 -51 0 -66 22 -22 67 -14 80 13 9 21 8 28 -7
45 -20 22 -55 26 -73 8z"/>
<path d="M1677 1194 c-13 -14 -7 -43 12 -53 24 -13 55 8 50 35 -4 19 -48 32
-62 18z"/>
<path d="M1048 1170 c-19 -15 -21 -22 -12 -37 25 -42 97 -15 74 27 -15 27 -37
31 -62 10z"/>
<path d="M1569 1154 c-9 -11 -10 -20 -2 -32 14 -24 54 -27 70 -7 28 40 -36 77
-68 39z"/>
<path d="M1146 1132 c-15 -18 -15 -20 3 -36 34 -31 81 10 49 42 -17 17 -32 15
-52 -6z"/>
<path d="M1453 1119 c-33 -12 -32 -65 2 -81 45 -20 100 40 63 69 -22 17 -42
21 -65 12z"/>
<path d="M1742 1118 c-17 -17 -15 -36 7 -47 24 -13 55 8 49 35 -4 22 -38 30
-56 12z"/>
<path d="M908 1089 c-21 -12 -24 -49 -6 -67 22 -22 67 -14 80 13 9 21 8 28 -7
45 -20 22 -41 25 -67 9z"/>
<path d="M1631 1071 c-23 -42 46 -71 72 -29 8 12 7 21 -2 32 -18 22 -58 20
-70 -3z"/>
<path d="M1033 1064 c-7 -20 8 -48 28 -52 8 -1 23 4 34 12 16 12 18 18 9 33
-15 25 -62 30 -71 7z"/>
<path d="M1820 1055 c-11 -13 -11 -18 2 -31 20 -20 50 -7 46 20 -4 26 -30 32
-48 11z"/>
<path d="M1144 1035 c-9 -22 9 -37 37 -33 16 2 24 10 24 23 0 26 -52 35 -61
10z"/>
<path d="M1522 1018 c-29 -29 -7 -78 34 -78 25 0 54 24 54 45 0 36 -62 59 -88
33z"/>
<path d="M1711 1001 c-16 -28 9 -56 42 -47 20 5 27 13 27 30 0 37 -52 50 -69
17z"/>
<path d="M1904 1005 c-4 -9 -2 -21 4 -27 16 -16 47 -5 47 17 0 26 -42 34 -51
10z"/>
<path d="M2007 984 c-4 -4 -7 -16 -7 -26 0 -13 7 -18 26 -18 21 0 25 4 22 22
-3 23 -27 35 -41 22z"/>
<path d="M926 967 c-21 -16 -18 -55 5 -70 23 -14 67 0 74 24 4 13 0 27 -11 40
-20 22 -43 24 -68 6z"/>
<path d="M1051 966 c-9 -11 -10 -20 -1 -36 21 -39 83 -7 67 34 -8 20 -50 21
-66 2z"/>
<path d="M2107 963 c-14 -13 -7 -33 11 -33 26 0 34 11 21 27 -13 14 -22 16
-32 6z"/>
<path d="M1172 938 c4 -31 53 -34 53 -3 0 15 -8 21 -28 23 -25 3 -28 0 -25
-20z"/>
<path d="M1804 946 c-11 -28 4 -48 33 -44 22 2 28 8 28 28 0 20 -6 26 -28 28
-18 2 -29 -2 -33 -12z"/>
<path d="M2205 951 c-7 -12 12 -24 25 -16 11 7 4 25 -10 25 -5 0 -11 -4 -15
-9z"/>
<path d="M1628 939 c-36 -21 -16 -79 27 -79 44 0 63 60 26 80 -24 12 -31 12
-53 -1z"/>
<path d="M1910 904 c-18 -21 9 -49 39 -39 23 7 27 25 9 43 -16 16 -33 15 -48
-4z"/>
<path d="M2027 883 c-4 -3 -7 -15 -7 -25 0 -22 45 -26 53 -4 9 24 -28 47 -46
29z"/>
<path d="M1084 865 c-10 -24 19 -49 45 -40 16 5 21 13 19 28 -4 28 -55 37 -64
12z"/>
<path d="M1217 873 c-12 -11 -7 -41 7 -46 8 -3 22 0 32 8 15 11 16 15 5 29
-14 17 -33 21 -44 9z"/>
<path d="M1738 869 c-47 -27 -1 -93 48 -70 30 13 33 56 5 71 -24 12 -31 12
-53 -1z"/>
<path d="M2133 864 c-9 -23 13 -40 32 -24 12 10 13 16 4 26 -15 18 -28 18 -36
-2z"/>
<path d="M2245 870 c-3 -6 1 -13 10 -16 19 -8 30 0 20 15 -8 14 -22 14 -30 1z"/>
<path d="M962 848 c-19 -19 -14 -46 13 -64 23 -15 27 -15 50 0 29 19 32 38 9
60 -18 19 -55 21 -72 4z"/>
<path d="M1856 811 c-30 -33 7 -71 54 -56 26 8 27 51 1 65 -27 14 -35 13 -55
-9z"/>
<path d="M2395 810 c-4 -7 -3 -16 3 -22 14 -14 45 -2 40 15 -6 16 -34 21 -43
7z"/>
<path d="M2886 788 c-16 -25 -27 -100 -51 -338 -8 -85 -18 -172 -21 -192 -6
-38 -5 -38 28 -38 l34 0 24 225 c12 124 27 225 31 225 5 0 12 -12 15 -27 4
-16 22 -86 41 -158 20 -72 42 -157 50 -190 16 -68 27 -85 54 -85 26 0 40 35
89 220 57 220 60 229 70 235 10 6 14 -20 35 -245 9 -91 18 -173 21 -182 4 -12
15 -18 36 -18 l30 0 -7 63 c-3 34 -15 132 -25 217 -10 85 -21 181 -25 213 -7
59 -30 97 -60 97 -31 0 -51 -43 -89 -192 -59 -236 -67 -261 -77 -251 -6 6 -34
101 -64 213 -54 205 -65 230 -107 230 -10 0 -24 -10 -32 -22z"/>
<path d="M1264 785 c-8 -20 4 -35 26 -35 25 0 35 17 20 35 -16 19 -39 19 -46
0z"/>
<path d="M1996 787 c-13 -10 -16 -20 -11 -36 5 -18 13 -22 38 -19 38 4 49 34
21 55 -22 16 -26 16 -48 0z"/>
<path d="M2264 785 c-18 -13 -18 -15 -1 -32 13 -13 21 -15 34 -7 25 16 27 31
5 43 -14 7 -24 6 -38 -4z"/>
<path d="M4780 573 c0 -220 1 -230 24 -280 29 -60 64 -83 130 -83 56 0 90 15
107 46 7 13 16 24 20 24 4 0 23 -16 42 -35 31 -31 41 -35 89 -35 66 0 108 24
134 76 17 35 19 66 22 277 l3 237 -30 0 -31 0 0 -222 c0 -202 -2 -226 -19
-254 -26 -43 -79 -61 -118 -40 -49 25 -53 43 -56 286 l-2 225 -30 0 -30 0 -5
-237 c-5 -230 -6 -238 -28 -260 -31 -31 -92 -31 -126 1 l-26 24 -2 236 -3 236
-32 3 -33 3 0 -228z"/>
<path d="M6451 782 c-42 -23 -71 -74 -71 -125 0 -72 39 -118 158 -186 88 -51
117 -94 91 -139 -23 -42 -54 -52 -161 -52 l-98 0 0 -30 0 -30 125 0 c122 0
125 1 155 28 40 37 58 106 42 161 -18 58 -50 91 -132 136 -94 51 -120 76 -120
114 0 56 30 71 142 71 l98 0 0 35 0 35 -98 0 c-75 0 -105 -4 -131 -18z"/>
<path d="M1147 784 c-12 -13 -8 -42 8 -48 25 -9 46 5 43 28 -3 21 -37 34 -51
20z"/>
<path d="M2132 778 c-33 -33 17 -78 53 -48 19 16 19 25 -1 44 -19 19 -36 20
-52 4z"/>
<path d="M1030 735 c-15 -18 -4 -52 20 -60 25 -8 60 11 60 33 0 39 -55 57 -80
27z"/>
<path d="M1337 723 c-14 -13 -7 -33 11 -33 24 0 32 8 25 26 -5 15 -25 19 -36
7z"/>
<path d="M1209 694 c-11 -14 -10 -18 6 -30 10 -8 22 -14 26 -14 14 0 31 30 25
45 -7 20 -40 19 -57 -1z"/>
<path d="M1415 659 c-10 -15 1 -23 20 -15 9 3 13 10 10 16 -8 13 -22 13 -30
-1z"/>
<path d="M1132 649 c-27 -10 -27 -46 1 -63 22 -14 51 3 55 32 4 27 -25 43 -56
31z"/>
<path d="M1294 625 c-8 -19 12 -36 33 -28 19 7 12 37 -10 41 -9 2 -20 -4 -23
-13z"/>
<path d="M3420 445 c0 -172 1 -186 20 -205 11 -11 27 -20 36 -20 13 0 15 23
12 184 -3 164 -5 186 -22 205 -42 47 -46 33 -46 -164z"/>
<path d="M3530 487 c0 -131 2 -148 23 -188 38 -70 77 -84 235 -80 l32 1 0 80
0 80 69 0 c54 0 74 -4 95 -21 34 -27 56 -70 56 -109 0 -28 3 -30 35 -30 34 0
35 1 35 38 0 38 -30 114 -56 143 -13 15 -12 21 10 54 29 42 46 95 46 143 0 30
-2 32 -35 32 -33 0 -35 -2 -35 -35 0 -44 -21 -86 -56 -114 -21 -17 -41 -21
-95 -21 l-69 0 0 59 c0 61 -25 111 -56 111 -12 0 -14 -31 -14 -180 l0 -179
-52 5 c-41 5 -59 12 -80 35 -27 29 -28 32 -28 148 0 105 -2 121 -21 145 -11
14 -25 26 -30 26 -5 0 -9 -62 -9 -143z"/>
<path d="M4150 557 c0 -55 6 -84 24 -123 22 -48 78 -104 104 -104 6 0 12 -23
14 -52 l3 -53 38 -3 37 -3 0 49 c0 47 2 50 45 78 68 43 97 107 93 209 l-3 78
-28 -24 c-22 -18 -30 -37 -36 -79 -12 -92 -45 -130 -112 -130 -61 0 -106 58
-108 140 -1 41 -22 75 -51 83 -19 5 -20 1 -20 -66z"/>
<path d="M5529 620 c-45 -13 -79 -42 -106 -88 -22 -37 -27 -58 -27 -111 0 -72
15 -109 61 -155 40 -41 61 -46 184 -46 l109 0 0 128 c0 102 -4 135 -19 167
-22 50 -69 91 -119 105 -42 11 -47 11 -83 0z m89 -84 c47 -26 62 -64 62 -158
l0 -88 -62 0 c-77 0 -122 24 -145 77 -43 104 55 219 145 169z"/>
<path d="M5793 615 c-3 -9 -3 -48 0 -87 8 -89 43 -152 105 -186 41 -23 42 -25
42 -73 l0 -49 35 0 35 0 0 50 c0 48 2 50 39 70 47 23 78 65 97 127 16 52 19
149 5 158 -5 3 -21 -5 -36 -18 -21 -18 -28 -35 -34 -86 -7 -55 -12 -68 -40
-93 -45 -41 -92 -39 -137 6 -26 26 -34 42 -34 70 0 48 -23 102 -49 116 -17 9
-22 8 -28 -5z"/>
<path d="M6853 619 c-51 -15 -100 -71 -119 -136 -21 -73 -7 -148 38 -199 46
-52 77 -64 162 -64 67 0 75 2 69 18 -13 36 -36 52 -75 52 -133 0 -187 157 -82
239 16 13 41 21 65 21 20 0 45 3 54 6 18 7 47 58 38 68 -9 9 -113 6 -150 -5z"/>
<path d="M7030 456 c0 -172 6 -209 34 -228 30 -20 36 -8 36 72 l0 80 84 0 83
0 6 -61 c5 -61 26 -99 54 -99 10 0 13 36 13 180 0 180 0 181 -25 206 -14 14
-30 22 -35 19 -6 -3 -10 -42 -10 -86 l0 -79 -85 0 -85 0 0 48 c0 54 -15 88
-47 110 l-23 14 0 -176z"/>
<path d="M7516 620 c-71 -22 -128 -111 -128 -200 0 -117 74 -200 179 -200 84
0 152 62 174 158 33 142 -97 282 -225 242z m127 -110 c23 -25 27 -39 27 -86 0
-67 -24 -107 -75 -124 -68 -23 -135 36 -135 120 0 114 111 170 183 90z"/>
<path d="M7919 621 c-46 -15 -79 -43 -107 -90 -37 -63 -38 -156 -3 -218 36
-62 75 -87 146 -91 72 -4 110 16 152 79 25 37 28 52 28 120 0 70 -3 81 -30
120 -47 67 -123 100 -186 80z m96 -91 c117 -72 26 -288 -95 -225 -85 44 -93
162 -14 224 34 26 68 27 109 1z"/>
<path d="M8180 502 c0 -167 23 -227 102 -268 39 -20 178 -19 178 1 0 27 -38
55 -76 55 -49 0 -96 24 -117 59 -13 21 -17 52 -17 118 0 94 -11 126 -47 151
l-23 14 0 -130z"/>
<path d="M1390 565 c0 -10 7 -15 18 -13 21 4 19 22 -2 26 -10 2 -16 -3 -16
-13z"/>
<path d="M1219 554 c-17 -21 0 -49 31 -49 31 0 48 28 31 49 -8 9 -21 16 -31
16 -10 0 -23 -7 -31 -16z"/>
<path d="M1334 485 c-8 -19 3 -35 25 -35 26 0 44 23 29 38 -17 17 -47 15 -54
-3z"/>
<path d="M1465 440 c-4 -7 -3 -16 3 -22 14 -14 45 -2 40 15 -6 16 -34 21 -43
7z"/>
<path d="M422 303 l2 -68 3 63 c3 51 7 62 21 62 55 0 56 -94 2 -113 -12 -4
-12 -6 2 -6 26 -1 48 27 48 63 0 37 -25 66 -58 66 -21 0 -22 -4 -20 -67z"/>
<path d="M762 303 c-2 -43 2 -54 17 -63 30 -15 38 -12 14 5 -16 11 -23 28 -26
63 l-3 47 -2 -52z"/>
<path d="M1060 303 c0 -47 12 -73 34 -73 5 0 2 6 -7 13 -13 9 -16 23 -13 55 2
23 -1 45 -5 48 -5 3 -9 -17 -9 -43z"/>
<path d="M1123 295 c0 -33 2 -45 4 -27 5 36 30 53 44 31 7 -11 9 -11 9 4 0 11
-8 17 -24 17 -15 0 -26 7 -29 18 -3 9 -4 -10 -4 -43z"/>
<path d="M1512 290 c1 -46 2 -49 7 -20 4 26 11 35 26 35 16 0 21 -9 26 -40 l6
-40 2 36 c1 38 -13 59 -40 59 -10 0 -20 6 -22 13 -3 6 -5 -13 -5 -43z"/>
<path d="M1590 328 c0 -7 4 -19 9 -27 7 -10 9 -7 8 12 -2 26 -17 39 -17 15z"/>
<path d="M526 314 c-29 -28 -12 -66 34 -79 21 -5 20 -3 -8 14 -38 25 -39 49
-2 68 17 9 20 13 8 13 -9 0 -24 -7 -32 -16z"/>
<path d="M605 308 c9 -47 25 -79 35 -73 5 3 10 11 10 16 0 6 -4 8 -9 5 -5 -4
-16 13 -25 36 -9 24 -14 31 -11 16z"/>
<path d="M656 304 c-4 -14 -5 -28 -3 -31 3 -2 8 8 11 23 4 14 5 28 3 31 -3 2
-8 -8 -11 -23z"/>
<path d="M696 314 c-9 -8 -16 -24 -16 -34 0 -21 36 -50 60 -50 8 1 0 7 -18 15
-40 18 -41 52 -2 72 17 9 20 13 8 13 -9 0 -24 -7 -32 -16z"/>
<path d="M836 314 c-21 -21 -20 -47 2 -67 10 -10 21 -17 25 -17 13 0 37 32 37
50 0 19 -25 50 -40 50 -5 0 -16 -7 -24 -16z m42 -6 c16 -16 15 -43 -3 -58 -30
-25 -61 30 -33 58 15 15 21 15 36 0z"/>
<path d="M1222 314 c-12 -8 -22 -22 -22 -30 0 -20 37 -54 58 -53 11 0 8 4 -10
10 -29 11 -41 31 -32 53 3 8 18 19 32 25 15 5 20 10 12 10 -9 1 -26 -6 -38
-15z"/>
<path d="M938 309 c-14 -7 -18 -22 -16 -57 l1 -47 4 42 c5 51 24 71 47 48 19
-19 5 -55 -21 -55 -9 0 -14 -3 -10 -6 3 -3 15 -3 26 1 29 9 37 42 15 66 -20
22 -22 22 -46 8z"/>
<path d="M1340 298 c0 -12 1 -19 3 -17 1 2 9 12 16 22 12 14 11 17 -3 17 -10
0 -16 -8 -16 -22z"/>
<path d="M1393 275 c0 -27 2 -38 4 -22 2 15 2 37 0 50 -2 12 -4 0 -4 -28z"/>
<path d="M1427 314 c-14 -14 -7 -26 8 -14 22 19 43 5 48 -32 4 -28 4 -27 3 7
-1 35 -4 40 -26 43 -14 2 -29 0 -33 -4z"/>
<path d="M1706 304 c-9 -8 -16 -22 -16 -29 0 -21 29 -45 53 -44 20 1 21 2 2 6
-46 11 -52 56 -11 73 16 7 17 9 4 9 -9 1 -24 -6 -32 -15z"/>
<path d="M1770 299 c-17 -31 2 -69 35 -69 26 0 40 29 33 67 -5 28 -54 30 -68
2z m58 -22 c4 -34 -25 -49 -44 -22 -10 13 -10 23 -3 37 15 27 43 18 47 -15z"/>
<path d="M1867 314 c-4 -4 -6 -26 -6 -48 l2 -41 6 40 c4 26 11 40 21 40 10 0
17 -14 21 -40 l7 -40 -2 45 c-1 37 -5 46 -21 48 -12 2 -24 0 -28 -4z"/>
<path d="M1941 315 c-2 -20 20 -85 29 -85 4 0 15 20 24 45 8 25 11 43 6 40 -5
-3 -11 -19 -15 -36 -8 -35 -15 -31 -32 14 -6 18 -12 28 -12 22z"/>
<path d="M2072 308 c-7 -7 -12 -24 -12 -39 0 -27 16 -40 48 -38 10 1 6 4 -8 8
-34 9 -38 44 -8 65 15 11 18 16 7 16 -8 0 -20 -5 -27 -12z"/>
<path d="M2193 275 c0 -27 2 -38 4 -22 2 15 2 37 0 50 -2 12 -4 0 -4 -28z"/>
<path d="M2232 308 c-27 -27 -7 -78 29 -78 10 0 20 4 23 9 3 4 -6 6 -19 3 -29
-5 -44 21 -28 47 15 23 36 20 50 -9 7 -14 13 -19 13 -12 0 42 -41 67 -68 40z"/>
<path d="M2327 313 c-14 -13 -7 -25 8 -13 21 18 35 4 37 -38 l1 -37 4 33 c6
45 -26 80 -50 55z"/>
<path d="M2413 313 c-22 -8 -14 -33 12 -43 33 -13 32 -28 -2 -33 -26 -4 -26
-4 5 -6 25 -1 32 3 32 17 0 11 -12 24 -27 31 -27 13 -23 25 12 34 l20 5 -20 0
c-11 0 -26 -2 -32 -5z"/>
<path d="M2132 272 c2 -27 8 -37 21 -38 12 -1 13 -1 2 3 -21 6 -19 51 3 55 14
3 12 5 -6 10 -21 6 -23 4 -20 -30z"/>
<path d="M548 283 c7 -3 16 -2 19 1 4 3 -2 6 -13 5 -11 0 -14 -3 -6 -6z"/>
<path d="M718 283 c7 -3 16 -2 19 1 4 3 -2 6 -13 5 -11 0 -14 -3 -6 -6z"/>
<path d="M1238 283 c7 -3 16 -2 19 1 4 3 -2 6 -13 5 -11 0 -14 -3 -6 -6z"/>
<path d="M1420 249 c0 -11 25 -22 39 -17 6 1 -1 8 -14 15 -14 6 -25 7 -25 2z"/>
<path d="M2031 244 c0 -11 3 -14 6 -6 3 7 2 16 -1 19 -3 4 -6 -2 -5 -13z"/>
<path d="M1600 239 c0 -5 9 -9 20 -9 11 0 20 2 20 4 0 2 -9 6 -20 9 -11 3 -20
1 -20 -4z"/>
<path d="M1481 218 c-1 -10 -8 -18 -16 -18 -8 0 -15 -4 -15 -10 0 -5 4 -10 9
-10 14 0 33 28 28 42 -4 8 -6 7 -6 -4z"/>
</g>
</svg>
