<?xml version="1.0" standalone="no"?>
<!DOCTYPE svg PUBLIC "-//W3C//DTD SVG 20010904//EN"
 "http://www.w3.org/TR/2001/REC-SVG-20010904/DTD/svg10.dtd">
<svg version="1.0" xmlns="http://www.w3.org/2000/svg"
 width="2363.000000pt" height="726.000000pt" viewBox="0 0 2363.000000 726.000000"
 preserveAspectRatio="xMidYMid meet">

<g transform="translate(0.000000,726.000000) scale(0.100000,-0.100000)"
fill="#000000" stroke="none">
<path d="M17750 6969 c-51 -30 -73 -65 -78 -126 -5 -63 10 -104 50 -138 149
-125 353 64 239 223 -43 61 -144 81 -211 41z"/>
<path d="M18480 5610 l0 -1370 130 0 130 0 0 1370 0 1370 -130 0 -130 0 0
-1370z"/>
<path d="M19260 5610 l0 -1370 130 0 130 0 0 1370 0 1370 -130 0 -130 0 0
-1370z"/>
<path d="M1455 6799 c-407 -94 -926 -469 -1343 -969 l-112 -135 0 -569 0 -570
37 45 c227 267 544 553 801 723 427 281 786 370 1015 252 l47 -25 0 593 0 592
-37 21 c-70 39 -140 53 -257 52 -61 -1 -129 -5 -151 -10z"/>
<path d="M3551 6685 c-163 -36 -328 -112 -472 -219 -46 -35 -176 -145 -289
-245 -328 -292 -437 -366 -537 -365 l-53 0 0 -587 c0 -657 -5 -616 73 -607 98
12 210 90 512 358 109 96 241 208 294 248 148 112 348 206 481 226 25 4 53 10
63 12 16 5 17 42 17 600 0 469 -3 594 -12 593 -7 0 -42 -7 -77 -14z"/>
<path d="M3870 6087 l0 -594 43 -12 c117 -35 251 -135 326 -245 73 -105 161
-343 161 -432 0 -13 5 -24 11 -24 7 0 9 178 6 593 l-3 592 -26 105 c-66 269
-180 449 -346 546 -39 23 -144 64 -164 64 -4 0 -8 -267 -8 -593z"/>
<path d="M8000 6264 c-150 -32 -303 -138 -401 -277 l-49 -70 0 156 0 157 -120
0 -120 0 0 -995 0 -995 130 0 129 0 4 648 c4 724 2 707 78 870 46 100 142 203
229 245 125 61 313 73 433 27 69 -26 143 -95 175 -163 51 -109 52 -119 52
-899 l0 -728 134 0 135 0 3 668 c4 652 4 669 26 747 33 120 83 213 144 271
111 105 217 140 393 131 211 -12 312 -79 377 -253 23 -59 23 -59 26 -811 l3
-753 135 0 135 0 -4 748 c-4 837 -3 824 -77 980 -77 161 -208 259 -399 298
-117 23 -319 15 -411 -16 -161 -55 -287 -147 -360 -264 -19 -31 -37 -56 -40
-56 -3 0 -16 26 -30 57 -37 88 -126 176 -224 223 -45 22 -110 46 -146 54 -81
20 -271 20 -360 0z"/>
<path d="M11043 6266 c-345 -66 -546 -275 -579 -603 l-7 -63 130 0 129 0 12
81 c27 187 125 297 317 356 82 25 321 25 414 0 178 -48 265 -151 278 -329 8
-115 -12 -184 -68 -232 -50 -43 -72 -48 -355 -81 -293 -34 -391 -51 -504 -87
-133 -42 -222 -91 -294 -162 -101 -100 -139 -207 -138 -386 0 -169 49 -297
154 -402 132 -132 378 -197 638 -168 233 26 371 102 526 291 l59 72 11 -74 c6
-41 18 -90 26 -110 21 -47 89 -104 143 -118 48 -12 187 -15 248 -5 l37 7 0
114 c0 106 -1 115 -17 108 -41 -16 -101 -17 -134 -1 -67 32 -63 -3 -70 696 -6
698 -4 677 -70 807 -67 132 -218 242 -384 279 -97 22 -406 28 -502 10z m686
-1369 c-17 -106 -78 -218 -163 -302 -82 -81 -157 -124 -277 -159 -228 -66
-426 -30 -548 99 -82 86 -96 123 -96 245 0 122 15 160 85 224 97 88 254 137
592 186 244 35 323 52 376 79 l37 19 3 -161 c1 -90 -2 -192 -9 -230z"/>
<path d="M13095 6264 c-432 -96 -704 -456 -732 -969 -18 -343 96 -667 306
-868 144 -138 314 -215 524 -237 476 -51 832 217 920 693 l15 77 -134 0 -134
0 0 -26 c0 -78 -62 -230 -128 -314 -67 -86 -166 -156 -270 -192 -93 -31 -237
-31 -342 1 -273 83 -451 339 -491 706 -20 177 19 392 97 549 144 287 418 425
719 361 185 -39 313 -164 380 -369 l28 -86 128 0 c151 0 142 -12 105 133 -36
140 -94 245 -187 339 -64 64 -93 84 -180 126 -147 71 -204 84 -394 88 -119 3
-178 0 -230 -12z"/>
<path d="M15135 6264 c-146 -31 -297 -131 -385 -253 -25 -35 -50 -70 -57 -79
-10 -14 -12 14 -13 141 l0 157 -120 0 -120 0 0 -995 0 -995 130 0 130 0 0 583
c0 349 4 618 11 672 13 113 63 263 113 338 96 144 258 227 446 227 174 0 295
-70 357 -207 50 -108 52 -154 53 -910 l0 -703 130 0 130 0 0 608 c0 646 5 731
50 868 23 69 78 165 118 207 40 42 120 92 182 113 74 25 279 26 360 2 150 -46
232 -155 260 -345 5 -39 10 -363 10 -760 l0 -693 130 0 131 0 -4 758 c-3 744
-3 758 -25 841 -79 296 -285 441 -631 441 -245 0 -463 -105 -580 -281 -22 -33
-43 -60 -46 -60 -4 0 -20 28 -37 62 -62 123 -191 218 -356 260 -92 23 -263 25
-367 3z"/>
<path d="M20519 6265 c-181 -34 -346 -121 -430 -227 -82 -104 -149 -281 -149
-395 l0 -43 129 0 128 0 6 64 c16 174 100 285 264 351 157 64 433 56 574 -16
61 -31 125 -101 148 -165 44 -115 37 -263 -15 -331 -47 -61 -77 -70 -416 -112
-177 -23 -357 -51 -413 -66 -146 -38 -271 -102 -349 -178 -104 -102 -139 -198
-140 -382 0 -291 154 -486 440 -557 125 -30 341 -30 468 1 134 32 235 89 331
186 44 44 91 97 105 118 14 20 28 37 31 37 3 0 9 -29 12 -65 11 -120 66 -200
159 -231 38 -12 77 -15 161 -12 62 2 118 7 125 11 8 6 12 41 12 119 0 101 -1
110 -17 103 -37 -15 -92 -17 -127 -5 -74 24 -70 -10 -76 700 -5 576 -8 640
-24 690 -70 213 -213 343 -436 395 -102 24 -394 30 -501 10z m699 -1172 c-4
-166 -9 -208 -26 -263 -76 -229 -268 -378 -543 -421 -136 -21 -287 10 -378 79
-105 80 -151 166 -151 286 0 99 14 145 59 197 96 113 240 164 621 219 231 34
348 59 383 84 12 8 26 15 31 15 4 1 6 -88 4 -196z"/>
<path d="M22711 6260 c-183 -49 -326 -155 -428 -316 -9 -15 -12 11 -12 134
l-1 152 -130 0 -130 0 0 -995 0 -995 129 0 130 0 4 633 c3 614 4 634 25 716
82 310 314 485 622 468 266 -15 407 -158 440 -446 5 -48 10 -370 10 -728 l0
-643 130 0 130 0 0 683 c0 410 -4 716 -10 767 -39 316 -169 482 -442 561 -110
32 -364 37 -467 9z"/>
<path d="M17700 5235 l0 -995 130 0 130 0 -2 993 -3 992 -127 3 -128 3 0 -996z"/>
<path d="M1515 5243 c-254 -40 -546 -190 -860 -441 -188 -151 -494 -464 -628
-643 l-27 -36 2 -593 3 -593 81 99 c610 745 1375 1168 1760 975 l54 -28 0 593
0 592 -32 20 c-61 37 -130 54 -228 57 -52 2 -108 1 -125 -2z"/>
<path d="M3535 5115 c-129 -29 -283 -96 -405 -178 -68 -46 -168 -129 -350
-292 -326 -291 -474 -386 -554 -355 l-26 10 0 -595 0 -595 27 -11 c19 -7 41
-7 73 1 95 24 196 97 470 340 226 200 286 250 371 308 137 92 291 157 432 183
l67 12 0 594 0 593 -22 -1 c-13 -1 -50 -7 -83 -14z"/>
<path d="M3872 4524 l3 -596 52 -18 c135 -47 264 -156 342 -288 49 -82 103
-227 121 -327 8 -38 17 -74 22 -80 5 -6 8 239 5 585 -3 562 -5 600 -24 685
-51 217 -118 352 -232 466 -77 77 -138 115 -238 150 l-53 18 2 -595z"/>
<path d="M7310 2255 l0 -1445 135 0 135 0 0 1445 0 1445 -135 0 -135 0 0
-1445z"/>
<path d="M15933 3629 c-18 -5 -48 -25 -66 -43 -122 -122 -4 -331 161 -287 162
43 180 252 27 322 -44 20 -73 22 -122 8z"/>
<path d="M8877 2940 c-184 -31 -341 -114 -468 -246 -83 -87 -120 -142 -174
-257 -129 -274 -157 -639 -76 -961 51 -201 117 -329 229 -448 105 -111 213
-177 369 -225 83 -25 100 -27 288 -27 234 -1 320 15 465 86 190 94 347 306
419 566 l20 72 -128 0 -127 0 -12 -46 c-49 -181 -174 -340 -329 -418 -155 -77
-427 -80 -575 -5 -237 119 -387 366 -405 667 l-6 92 798 0 798 0 -7 123 c-19
361 -121 625 -315 810 -125 119 -265 189 -431 216 -75 12 -262 13 -333 1z
m304 -214 c273 -58 490 -331 516 -648 l6 -78 -667 0 -666 0 0 29 c0 56 51 228
94 316 78 163 173 263 315 335 115 57 266 75 402 46z"/>
<path d="M10916 2939 c-370 -54 -591 -267 -634 -611 l-9 -68 129 0 128 0 0 35
c0 18 5 58 11 87 51 242 270 372 599 354 191 -10 282 -40 370 -122 70 -66 102
-144 108 -264 7 -155 -24 -226 -118 -272 -48 -23 -93 -32 -350 -63 -322 -40
-403 -54 -525 -92 -238 -74 -385 -214 -424 -401 -16 -75 -13 -246 4 -321 51
-213 218 -362 463 -413 132 -27 379 -22 490 11 186 54 293 137 448 345 l28 39
12 -95 c7 -54 21 -113 33 -135 25 -50 78 -97 128 -114 41 -15 220 -19 266 -6
l27 7 0 104 0 103 -40 -7 c-77 -14 -142 10 -173 65 -9 14 -13 210 -17 690 -6
667 -6 670 -29 740 -76 228 -246 359 -521 401 -103 15 -309 17 -404 3z m693
-1441 c-13 -81 -70 -203 -128 -275 -185 -230 -605 -320 -843 -180 -58 34 -130
112 -165 178 -26 49 -28 63 -28 159 0 86 4 113 21 150 65 141 262 232 604 281
362 51 473 75 518 114 l27 23 3 -191 c1 -110 -2 -221 -9 -259z"/>
<path d="M14491 2940 c-214 -45 -414 -184 -487 -337 -16 -34 -32 -62 -36 -62
-5 -1 -8 78 -8 174 l0 175 -125 0 -125 0 0 -1035 0 -1035 125 0 125 0 0 608
c0 605 5 721 36 832 29 102 89 212 157 286 111 119 241 180 412 191 240 15
416 -69 500 -240 69 -141 68 -130 72 -944 l4 -733 125 0 124 0 0 718 c0 737
-4 824 -41 962 -59 217 -208 361 -438 421 -87 23 -345 35 -420 19z"/>
<path d="M17363 2935 c-213 -49 -374 -167 -473 -347 l-30 -53 0 178 0 177
-125 0 -125 0 0 -1035 0 -1035 125 0 124 0 3 678 c4 746 2 721 69 870 106 236
320 372 581 372 216 -1 372 -88 452 -253 64 -130 66 -161 66 -958 l0 -709 130
0 130 0 0 668 c0 693 -7 849 -40 988 -56 236 -201 381 -445 445 -105 28 -350
35 -442 14z"/>
<path d="M19405 2935 c-180 -35 -310 -102 -435 -222 -115 -109 -182 -215 -238
-373 -55 -157 -67 -236 -67 -445 1 -204 13 -293 62 -449 71 -226 222 -409 417
-505 120 -59 226 -83 391 -88 131 -5 161 -3 235 16 135 33 221 82 320 181 51
51 101 113 125 155 l40 69 3 -164 c2 -91 -2 -213 -8 -271 -34 -343 -180 -541
-446 -605 -93 -23 -312 -24 -413 -1 -197 44 -341 167 -390 335 l-17 57 -122 3
-122 3 0 -34 c0 -85 51 -212 122 -305 167 -216 529 -328 913 -281 344 42 564
210 666 508 11 31 29 99 41 151 22 94 22 109 25 1158 l4 1062 -126 0 -125 0 0
-182 0 -183 -37 65 c-48 83 -179 214 -263 263 -112 65 -205 90 -355 93 -83 2
-155 -2 -200 -11z m330 -210 c200 -42 372 -206 455 -432 49 -134 64 -238 64
-418 -1 -139 -5 -173 -27 -260 -41 -155 -105 -274 -202 -371 -129 -129 -258
-184 -435 -184 -202 0 -366 76 -492 228 -153 182 -217 475 -172 781 18 122 61
261 106 339 97 170 262 293 431 321 82 14 196 12 272 -4z"/>
<path d="M13190 2905 c-244 -49 -437 -205 -548 -442 l-27 -58 -3 243 -2 242
-115 0 -115 0 0 -1035 0 -1035 125 0 124 0 4 623 c4 691 3 678 73 824 68 142
179 254 319 323 98 48 173 68 288 77 l87 6 0 123 0 124 -72 -1 c-40 0 -102 -7
-138 -14z"/>
<path d="M15850 1855 l0 -1045 140 0 140 0 0 1045 0 1045 -140 0 -140 0 0
-1045z"/>
</g>
</svg>
