<?xml version="1.0" standalone="no"?>
<!DOCTYPE svg PUBLIC "-//W3C//DTD SVG 20010904//EN"
 "http://www.w3.org/TR/2001/REC-SVG-20010904/DTD/svg10.dtd">
<svg version="1.0" xmlns="http://www.w3.org/2000/svg"
 width="922.000000pt" height="249.000000pt" viewBox="0 0 922.000000 249.000000"
 preserveAspectRatio="xMidYMid meet">

<g transform="translate(0.000000,249.000000) scale(0.100000,-0.100000)"
fill="#000000" stroke="none">
<path d="M1699 2054 c71 -92 127 -177 157 -236 l34 -68 -58 33 c-42 23 -77 54
-120 107 -33 41 -85 99 -115 129 l-55 54 -56 -7 c-31 -4 -56 -10 -56 -14 0 -4
25 -24 54 -45 61 -42 169 -137 163 -144 -3 -2 -31 1 -63 6 -45 7 -78 22 -141
64 -124 81 -134 85 -193 57 -27 -13 -47 -26 -45 -30 3 -4 22 -11 42 -15 40 -7
156 -55 150 -62 -3 -2 -29 -8 -59 -12 -43 -8 -68 -5 -123 10 -95 26 -106 25
-156 -21 l-44 -41 52 6 c29 4 57 4 62 0 6 -3 -35 -29 -89 -57 -133 -67 -166
-107 -227 -267 -138 -367 0 -809 322 -1031 173 -119 414 -178 615 -150 306 42
553 221 685 495 54 113 74 193 82 320 l6 100 -54 -54 c-63 -63 -165 -136 -267
-192 -63 -35 -110 -79 -84 -79 28 0 268 114 340 161 38 25 38 22 12 -65 -16
-51 -27 -69 -48 -80 -53 -27 -200 -74 -298 -96 -62 -13 -106 -28 -119 -41 -19
-19 -19 -19 60 -13 73 6 237 34 294 50 21 6 22 5 13 -13 -6 -11 -30 -41 -54
-68 -42 -45 -45 -47 -111 -52 -38 -3 -122 0 -187 7 -114 12 -166 8 -155 -10 8
-13 127 -47 214 -61 l74 -12 -58 -30 c-54 -27 -61 -28 -104 -17 -25 6 -89 29
-143 51 -69 29 -104 38 -123 33 l-27 -7 29 -19 c15 -10 64 -38 108 -61 l80
-41 -63 -9 c-35 -5 -73 -6 -85 -3 -12 3 -56 34 -98 69 -52 44 -88 66 -114 71
l-39 8 39 -43 c21 -24 50 -53 64 -66 24 -20 24 -22 6 -22 -11 0 -42 8 -70 18
-43 15 -56 26 -93 81 -26 40 -56 72 -77 83 l-36 18 26 -51 c14 -27 22 -50 18
-50 -25 0 -109 91 -135 145 -16 33 -48 88 -72 122 -169 244 -95 594 161 759
28 19 87 45 130 60 69 23 89 26 183 22 126 -5 195 -27 292 -94 80 -54 138
-123 183 -216 25 -52 35 -64 40 -50 49 119 91 288 97 389 2 38 -2 48 -37 83
-21 22 -42 40 -45 40 -3 0 -3 -33 1 -72 8 -76 -2 -217 -22 -306 -6 -29 -12
-52 -14 -52 -2 0 -15 21 -29 46 -20 35 -26 61 -26 105 0 73 -18 239 -33 310
-11 52 -14 55 -66 81 -30 16 -56 27 -57 25 -2 -1 13 -42 33 -91 33 -84 73
-242 73 -296 0 -23 -2 -22 -43 18 -30 30 -49 60 -61 98 -20 64 -129 286 -148
301 -7 6 -37 14 -67 18 l-54 7 22 -28z"/>
<path d="M3258 1827 c-103 -39 -172 -102 -217 -197 -22 -46 -26 -69 -26 -145
0 -78 4 -97 28 -147 36 -74 101 -139 175 -175 51 -25 67 -28 157 -28 121 1
169 19 249 95 79 74 111 150 111 260 0 74 -4 93 -29 144 -36 73 -97 136 -168
172 -45 23 -68 28 -148 31 -63 2 -107 -1 -132 -10z m217 -111 c60 -28 127 -99
143 -154 40 -133 -37 -277 -169 -316 -66 -20 -82 -20 -150 0 -41 12 -66 28
-104 67 -55 56 -75 105 -75 180 0 176 195 298 355 223z"/>
<path d="M5989 1826 c-90 -35 -166 -105 -211 -195 -19 -39 -23 -62 -23 -146 0
-90 3 -105 28 -153 38 -72 106 -138 175 -170 50 -24 70 -27 157 -27 95 0 103
2 163 34 76 41 135 104 170 179 21 46 26 73 26 137 1 69 -3 89 -31 147 -36 76
-88 131 -165 173 -47 26 -64 30 -153 32 -67 2 -112 -2 -136 -11z m236 -114
c159 -82 191 -277 65 -403 -200 -200 -530 32 -406 285 30 62 80 108 141 131
53 20 149 14 200 -13z"/>
<path d="M4046 1778 c21 -29 78 -106 127 -171 l88 -118 -53 -72 c-29 -40 -85
-116 -125 -169 -40 -53 -73 -100 -73 -103 0 -3 28 -5 63 -5 l62 0 99 140 c54
77 101 142 105 144 3 2 52 -61 109 -140 l103 -144 59 0 c33 0 60 3 60 8 0 4
-54 79 -120 167 -65 88 -119 165 -120 171 0 5 54 83 120 172 66 90 120 165
120 167 0 3 -28 5 -62 5 l-63 0 -99 -140 c-55 -77 -102 -140 -105 -140 -3 1
-50 64 -104 140 l-99 140 -65 0 -65 0 38 -52z"/>
<path d="M4980 1485 l0 -345 55 0 54 0 3 123 3 122 166 3 165 2 22 46 c12 24
22 47 22 49 0 3 -86 5 -190 5 l-191 0 3 118 3 117 208 3 207 2 0 50 0 50 -265
0 -265 0 0 -345z"/>
<path d="M6810 1486 l0 -346 55 0 55 0 0 110 0 110 104 0 104 0 37 -41 c20
-22 57 -72 81 -110 l45 -69 64 0 c36 0 65 4 65 8 0 17 -74 130 -120 183 l-48
55 33 19 c94 50 130 197 75 305 -23 45 -45 64 -105 92 -46 21 -68 23 -247 26
l-198 4 0 -346z m355 233 c87 -22 129 -111 88 -189 -29 -57 -69 -70 -210 -70
l-123 0 0 128 c0 71 3 132 7 135 11 11 190 8 238 -4z"/>
<path d="M7770 1485 l0 -345 133 0 c218 0 313 26 391 106 60 62 81 116 84 224
4 118 -18 188 -81 252 -82 85 -166 108 -383 108 l-144 0 0 -345z m360 218
c165 -73 187 -307 39 -415 -36 -26 -134 -48 -216 -48 l-73 0 0 246 0 247 103
-5 c72 -3 115 -10 147 -25z"/>
<path d="M2367 1680 c-3 -8 -15 -49 -27 -90 -25 -84 -75 -198 -120 -272 -17
-27 -30 -62 -30 -81 l0 -32 25 30 c103 121 221 322 211 358 -10 39 -54 104
-59 87z"/>
<path d="M2461 1453 c-29 -63 -111 -174 -192 -258 -47 -49 -88 -100 -92 -113
-6 -25 -4 -25 68 27 68 49 163 135 219 198 l47 52 -15 56 c-8 32 -16 59 -19
61 -2 2 -9 -8 -16 -23z"/>
<path d="M5238 844 c-31 -16 -44 -51 -34 -89 7 -26 55 -56 111 -69 60 -15 76
-58 29 -76 -28 -11 -98 2 -109 20 -9 15 -19 12 -33 -10 -11 -18 -8 -22 30 -41
59 -30 142 -23 175 15 48 57 17 112 -80 140 -69 20 -90 47 -53 71 24 16 52 13
106 -9 9 -4 20 2 28 14 11 19 10 22 -22 35 -45 19 -113 18 -148 -1z"/>
<path d="M7778 840 c-22 -17 -28 -30 -28 -59 0 -48 19 -65 98 -92 68 -23 81
-40 52 -69 -25 -25 -43 -25 -97 -1 -35 17 -44 17 -53 6 -16 -19 -5 -34 36 -51
88 -37 184 1 184 71 0 41 -26 63 -109 94 -47 17 -61 27 -61 42 0 31 45 43 97
25 40 -14 44 -14 53 4 15 28 -13 44 -84 48 -51 3 -65 0 -88 -18z"/>
<path d="M8135 848 c-30 -16 -45 -39 -45 -69 0 -41 29 -68 94 -87 73 -22 91
-45 57 -73 -27 -22 -67 -19 -109 8 -21 13 -25 13 -37 -4 -16 -22 -14 -27 29
-47 101 -48 219 13 186 98 -10 28 -32 42 -100 62 -57 17 -78 37 -60 59 19 23
45 27 88 12 41 -14 62 -8 62 19 0 29 -123 45 -165 22z"/>
<path d="M3080 745 c0 -81 4 -112 16 -131 24 -35 65 -54 120 -54 39 0 51 5 80
34 l34 34 0 111 0 111 -25 0 c-25 0 -25 0 -25 -94 0 -52 -3 -102 -6 -111 -10
-26 -63 -45 -93 -34 -43 17 -50 37 -51 142 0 97 0 97 -25 97 l-25 0 0 -105z"/>
<path d="M3460 710 l0 -140 25 0 c24 0 24 1 27 100 l3 100 82 -100 c65 -78 88
-100 108 -100 l25 0 0 140 0 140 -25 0 c-24 0 -24 -1 -27 -97 l-3 -98 -83 98
c-63 73 -90 97 -108 97 l-24 0 0 -140z"/>
<path d="M3880 710 l0 -140 25 0 25 0 0 140 0 140 -25 0 -25 0 0 -140z"/>
<path d="M4074 783 c13 -38 38 -101 56 -140 31 -69 35 -73 65 -73 30 0 34 5
63 68 31 66 56 130 72 185 8 26 7 28 -16 25 -22 -3 -31 -16 -64 -102 -22 -55
-43 -103 -48 -108 -9 -9 -60 95 -82 170 -11 36 -17 42 -41 42 l-28 0 23 -67z"/>
<path d="M4460 710 l0 -140 115 0 c108 0 115 1 115 20 0 19 -7 20 -91 20 l-90
0 3 38 3 37 67 3 c55 2 70 7 78 22 10 18 6 19 -67 22 l-78 3 -3 38 -3 37 90 0
c84 0 91 1 91 20 0 19 -7 20 -115 20 l-115 0 0 -140z"/>
<path d="M4830 710 c0 -132 1 -140 19 -140 16 0 20 8 23 43 3 42 3 42 45 45
40 3 44 1 75 -42 25 -36 38 -46 60 -46 35 0 35 5 -2 54 l-29 39 24 29 c35 42
34 100 -1 133 -25 23 -35 25 -120 25 l-94 0 0 -140z m172 83 c22 -20 23 -51 1
-75 -12 -13 -31 -18 -75 -18 l-58 0 0 55 0 55 57 0 c38 0 62 -5 75 -17z"/>
<path d="M5570 710 l0 -140 25 0 25 0 0 140 0 140 -25 0 -25 0 0 -140z"/>
<path d="M5740 830 c0 -17 7 -20 50 -20 l50 0 0 -120 0 -120 25 0 25 0 0 120
0 120 50 0 c43 0 50 3 50 20 0 19 -7 20 -125 20 -118 0 -125 -1 -125 -20z"/>
<path d="M6090 845 c0 -6 56 -100 85 -143 18 -26 25 -50 25 -84 0 -41 3 -48
20 -48 17 0 20 7 20 46 0 33 7 57 28 87 34 50 82 133 82 141 0 3 -12 6 -27 6
-24 0 -33 -10 -61 -60 -18 -33 -36 -60 -40 -60 -5 0 -24 27 -43 60 -28 50 -38
60 -61 60 -16 0 -28 -2 -28 -5z"/>
<path d="M6620 710 l0 -140 25 0 25 0 0 120 0 120 55 0 c42 0 60 -5 75 -20 42
-42 12 -90 -57 -90 -39 0 -53 -11 -53 -41 0 -12 56 -11 102 1 78 22 103 106
49 161 -28 28 -33 29 -125 29 l-96 0 0 -140z"/>
<path d="M7000 710 l0 -140 24 0 c22 0 25 5 28 43 3 41 4 42 40 45 38 3 42 1
95 -66 13 -17 27 -23 47 -20 l28 3 -32 44 -32 43 22 23 c12 13 24 41 27 64 5
35 2 44 -25 71 -30 29 -33 30 -126 30 l-96 0 0 -140z m180 80 c45 -45 8 -90
-75 -90 l-55 0 0 55 0 55 55 0 c42 0 60 -5 75 -20z"/>
<path d="M7390 710 l0 -140 110 0 c103 0 110 1 110 20 0 18 -7 20 -85 20 l-85
0 0 40 0 40 70 0 c59 0 71 3 80 20 10 19 8 20 -70 20 l-80 0 0 40 0 40 85 0
c78 0 85 2 85 20 0 19 -7 20 -110 20 l-110 0 0 -140z"/>
</g>
</svg>
